<svg width="16" height="14" viewBox="0 0 16 14" fill="none" xmlns="http://www.w3.org/2000/svg">
<path fill-rule="evenodd" clip-rule="evenodd" d="M14.6153 6.54492C14.5204 7.20274 14.2954 7.82796 13.9619 8.4029C13.9869 8.54525 13.9997 8.68913 13.9997 8.83364C13.9997 9.33552 13.8543 9.81584 13.5849 10.2522C13.4504 10.4701 13.4158 10.7253 13.4025 10.894C13.3873 11.0872 13.3924 11.2987 13.4062 11.5019C13.4217 11.7298 13.4497 11.9691 13.4818 12.1948C13.2216 12.1189 12.9395 12.0427 12.6704 11.982C12.4465 11.9315 12.2174 11.8884 12.0099 11.867C11.8289 11.8483 11.5674 11.8338 11.3335 11.9094C10.8221 12.0747 10.2594 12.167 9.66636 12.167C8.96109 12.167 8.31335 12.0418 7.74559 11.8243C7.60903 11.8305 7.47147 11.8336 7.33301 11.8336C6.52993 11.8336 5.75701 11.728 5.03385 11.5328C6.08516 12.7487 7.81828 13.5003 9.66636 13.5003C10.3883 13.5003 11.0812 13.3895 11.7198 13.1858C11.7209 13.1858 11.723 13.1858 11.726 13.1857C11.7424 13.1854 11.7879 13.1845 11.8729 13.1933C12.0067 13.2071 12.1786 13.2379 12.377 13.2826C12.7719 13.3717 13.2157 13.5032 13.5615 13.613C14.2949 13.8458 15.0056 13.2057 14.8745 12.4615C14.8181 12.1411 14.7595 11.7502 14.7365 11.4115C14.7249 11.2412 14.7236 11.1014 14.7317 10.9989C14.7351 10.9564 14.7394 10.9297 14.7421 10.9155C15.1172 10.2942 15.333 9.58679 15.333 8.83364C15.333 7.9846 15.0693 7.2093 14.6153 6.54492Z" fill="#787A80"/>
<path fill-rule="evenodd" clip-rule="evenodd" d="M3.73109 3.29877C2.83245 3.98597 2.33306 4.88806 2.33306 5.83333C2.33306 6.30469 2.45577 6.75866 2.68599 7.18082C2.77367 7.34161 2.79854 7.50747 2.80744 7.61975C2.81714 7.74218 2.8123 7.86801 2.80166 7.98568C2.78034 8.22126 2.72949 8.48818 2.66849 8.75109C2.59715 9.05862 2.50572 9.38659 2.41296 9.69453C2.76512 9.56653 3.15003 9.43536 3.51493 9.3289C3.80985 9.24287 4.10767 9.16821 4.37274 9.1263C4.60108 9.09019 4.93243 9.0547 5.2177 9.1534C5.85792 9.3749 6.57411 9.5 7.33306 9.5C8.76451 9.5 10.0358 9.05555 10.935 8.36789C11.8337 7.6807 12.3331 6.77861 12.3331 5.83333C12.3331 4.88806 11.8337 3.98597 10.935 3.29877C10.0358 2.61111 8.76451 2.16667 7.33306 2.16667C5.90162 2.16667 4.63034 2.61111 3.73109 3.29877ZM2.92116 2.23963C4.07283 1.35894 5.63489 0.833332 7.33306 0.833332C9.03123 0.833332 10.5933 1.35894 11.745 2.23963C12.8973 3.1208 13.6664 4.38537 13.6664 5.83333C13.6664 7.28129 12.8973 8.54587 11.745 9.42703C10.5933 10.3077 9.03123 10.8333 7.33306 10.8333C6.43769 10.8333 5.58244 10.6874 4.80591 10.4218C4.80513 10.4239 4.74215 10.4178 4.58098 10.4433C4.39521 10.4726 4.15809 10.5302 3.88836 10.6089C3.35138 10.7655 2.74835 10.9872 2.28902 11.1659C1.49327 11.4756 0.682633 10.7114 0.95074 9.89729C1.09284 9.46582 1.26043 8.92056 1.36966 8.44976C1.42468 8.21259 1.46039 8.01319 1.47375 7.86552C1.47839 7.81427 1.47958 7.7769 1.47932 7.75165C1.17246 7.16527 0.99973 6.51683 0.99973 5.83333C0.99973 4.38537 1.76887 3.1208 2.92116 2.23963Z" fill="#787A80"/>
</svg>
