<svg width="16" height="16" viewBox="0 0 16 16" fill="none" xmlns="http://www.w3.org/2000/svg">
<path fill-rule="evenodd" clip-rule="evenodd" d="M7.24967 2.16683C4.44223 2.16683 2.16634 4.44272 2.16634 7.25016C2.16634 10.0576 4.44223 12.3335 7.24967 12.3335C8.65227 12.3335 9.92112 11.7663 10.8415 10.8472C11.7637 9.92637 12.333 8.65539 12.333 7.25016C12.333 4.44272 10.0571 2.16683 7.24967 2.16683ZM0.833008 7.25016C0.833008 3.70634 3.70585 0.833496 7.24967 0.833496C10.7935 0.833496 13.6663 3.70634 13.6663 7.25016C13.6663 8.78297 13.1282 10.191 12.2317 11.2944L14.9706 14.0283C15.2312 14.2884 15.2316 14.7105 14.9715 14.9711C14.7114 15.2317 14.2893 15.2321 14.0287 14.972L11.2883 12.2367C10.1858 13.1305 8.7799 13.6668 7.24967 13.6668C3.70585 13.6668 0.833008 10.794 0.833008 7.25016Z" fill="#424551"/>
</svg>
