<svg width="16" height="16" viewBox="0 0 16 16" fill="none" xmlns="http://www.w3.org/2000/svg">
<path d="M14.6533 5.25341C14.6221 4.54496 14.5075 4.0579 14.3434 3.63587C14.1741 3.18788 13.9136 2.7868 13.5724 2.45338C13.2389 2.11478 12.8352 1.85166 12.3924 1.68501C11.9679 1.52089 11.4834 1.40633 10.775 1.37509C10.0612 1.34121 9.83465 1.33337 8.0244 1.33337C6.21416 1.33337 5.98757 1.34121 5.27648 1.37244C4.56803 1.40368 4.08097 1.51835 3.65904 1.68236C3.21095 1.85166 2.80987 2.11213 2.47645 2.45338C2.13785 2.7868 1.87484 3.19053 1.70808 3.63332C1.54396 4.0579 1.4294 4.54231 1.39816 5.25076C1.36428 5.96451 1.35645 6.19109 1.35645 8.00134C1.35645 9.81159 1.36428 10.0382 1.39552 10.7493C1.42675 11.4577 1.54142 11.9448 1.70553 12.3668C1.87484 12.8148 2.13785 13.2159 2.47645 13.5493C2.80987 13.8879 3.2136 14.151 3.65639 14.3177C4.08097 14.4818 4.56538 14.5964 5.27393 14.6276C5.98493 14.6589 6.21161 14.6667 8.02186 14.6667C9.83211 14.6667 10.0587 14.6589 10.7698 14.6276C11.4782 14.5964 11.9653 14.4818 12.3872 14.3177C13.2833 13.9712 13.9917 13.2628 14.3382 12.3668C14.5022 11.9422 14.6169 11.4577 14.6481 10.7493C14.6793 10.0382 14.6872 9.81159 14.6872 8.00134C14.6872 6.19109 14.6845 5.96451 14.6533 5.25341ZM13.4526 10.6972C13.4239 11.3483 13.3145 11.7 13.2234 11.9344C12.9993 12.5153 12.5383 12.9763 11.9575 13.2003C11.723 13.2915 11.3689 13.4009 10.7202 13.4294C10.017 13.4608 9.80606 13.4685 8.02705 13.4685C6.24804 13.4685 6.03448 13.4608 5.33376 13.4294C4.68259 13.4009 4.33096 13.2915 4.09654 13.2003C3.80748 13.0935 3.54437 12.9242 3.33081 12.7028C3.10941 12.4866 2.94011 12.2261 2.83327 11.937C2.74211 11.7026 2.63273 11.3483 2.60414 10.6998C2.57281 9.99656 2.56507 9.78555 2.56507 8.00653C2.56507 6.22752 2.57281 6.01396 2.60414 5.31334C2.63273 4.66217 2.74211 4.31054 2.83327 4.07612C2.94011 3.78696 3.10941 3.52395 3.33345 3.31028C3.54956 3.08888 3.81003 2.91958 4.09918 2.81285C4.33361 2.72169 4.68788 2.61231 5.3364 2.58362C6.03967 2.55238 6.25068 2.54455 8.02959 2.54455C9.81125 2.54455 10.0222 2.55238 10.7229 2.58362C11.3741 2.61231 11.7257 2.72169 11.9601 2.81285C12.2492 2.91958 12.5123 3.08888 12.7258 3.31028C12.9472 3.52649 13.1165 3.78696 13.2234 4.07612C13.3145 4.31054 13.4239 4.66471 13.4526 5.31334C13.4838 6.0166 13.4917 6.22752 13.4917 8.00653C13.4917 9.78555 13.4838 9.99392 13.4526 10.6972Z" fill="white"/>
<path d="M8.0244 4.57619C6.13347 4.57619 4.59925 6.11031 4.59925 8.00135C4.59925 9.89239 6.13347 11.4265 8.0244 11.4265C9.91544 11.4265 11.4496 9.89239 11.4496 8.00135C11.4496 6.11031 9.91544 4.57619 8.0244 4.57619ZM8.0244 10.2232C6.79766 10.2232 5.80259 9.22819 5.80259 8.00135C5.80259 6.7745 6.79766 5.77954 8.0244 5.77954C9.25125 5.77954 10.2462 6.7745 10.2462 8.00135C10.2462 9.22819 9.25125 10.2232 8.0244 10.2232Z" fill="white"/>
<path d="M12.3847 4.44077C12.3847 4.88235 12.0267 5.24039 11.585 5.24039C11.1434 5.24039 10.7854 4.88235 10.7854 4.44077C10.7854 3.9991 11.1434 3.64116 11.585 3.64116C12.0267 3.64116 12.3847 3.9991 12.3847 4.44077Z" fill="white"/>
</svg>
