<svg width="16" height="16" viewBox="0 0 16 16" fill="none" xmlns="http://www.w3.org/2000/svg">
<path fill-rule="evenodd" clip-rule="evenodd" d="M7.99925 13.2719C4.93321 11.5256 3.22318 9.78992 2.39626 8.28398C1.54992 6.74265 1.62377 5.44446 2.0934 4.5231C3.05872 2.62928 5.80378 2.02369 7.4763 4.13902L7.99921 4.80038L8.52217 4.13905C10.195 2.02364 12.9402 2.62932 13.9055 4.5231C14.3751 5.44445 14.4489 6.74263 13.6025 8.28396C12.7756 9.78991 11.0654 11.5256 7.99925 13.2719ZM7.99928 2.73763C5.64647 0.501885 2.17555 1.42591 0.905488 3.9176C0.20846 5.28507 0.198939 7.05249 1.22753 8.92572C2.247 10.7823 4.2796 12.7421 7.67675 14.6197L7.99924 14.798L8.32173 14.6197C11.719 12.7421 13.7517 10.7824 14.7712 8.92574C15.7999 7.05251 15.7904 5.28508 15.0934 3.9176C13.8233 1.42586 10.3523 0.501918 7.99928 2.73763Z" fill="#17696A"/>
</svg>
