<svg width="48" height="48" viewBox="0 0 48 48" fill="none" xmlns="http://www.w3.org/2000/svg">
<path d="M28.6904 22.5C29.2079 22.5 29.6279 22.08 29.6279 21.5625C29.6279 21.045 29.2079 20.625 28.6904 20.625C28.1719 20.625 27.7529 21.045 27.7529 21.5625C27.7529 22.08 28.1719 22.5 28.6904 22.5Z" fill="#17696A"/>
<path d="M19.3154 22.5C19.8329 22.5 20.2529 22.08 20.2529 21.5625C20.2529 21.045 19.8329 20.625 19.3154 20.625C18.7969 20.625 18.3779 21.045 18.3779 21.5625C18.3779 22.08 18.7969 22.5 19.3154 22.5Z" fill="#17696A"/>
<path d="M3.375 45.0048V47.0625C3.375 47.5803 3.79468 48 4.3125 48H43.6875C44.2053 48 44.625 47.5803 44.625 47.0625V45.0029C44.625 41.2745 42.5306 37.8289 38.6547 36.4142C40.0554 35.1907 40.9069 33.3984 40.9069 31.4604C40.9069 30.943 40.4872 30.5229 39.9694 30.5229C37.7142 30.5229 35.8136 28.9281 35.3558 26.8125H38.0654C39.6145 26.8125 40.875 25.5509 40.875 24V19.6875C40.875 18.4647 40.0909 17.4221 39 17.0358V15C39 6.72913 32.2723 0 24.0029 0C15.7145 0 9 6.70789 9 15V17.0372C7.90906 17.425 7.125 18.4673 7.125 19.6875V24C7.125 25.5509 8.38806 26.8125 9.94043 26.8125H12.6442C12.1871 28.9281 10.2883 30.5229 8.0354 30.5229C7.51758 30.5229 7.0979 30.943 7.0979 31.4604C7.0979 33.401 7.95154 35.1951 9.35596 36.4193C5.495 37.8351 3.375 41.3156 3.375 45.0048ZM38.9528 32.3196C38.6609 33.8917 37.5791 35.2262 36.0674 35.8257L30.3878 35.0881L29.781 32.7166C31.5516 31.6578 32.9626 30.1619 33.9082 28.4059C34.7904 30.4501 36.6852 31.9662 38.9528 32.3196ZM31.5168 16.875C28.927 16.875 26.8198 14.7415 26.8198 12.119C26.8198 11.6012 26.4001 11.1815 25.8823 11.1815C25.3649 11.1815 24.9448 11.6012 24.9448 12.119C24.9448 14.7415 22.8376 16.875 20.2471 16.875H14.6279C14.6279 11.7056 18.8335 7.5 24.0029 7.5C29.1823 7.5 33.3779 11.6917 33.3779 16.875H31.5168ZM14.625 18.75H20.2471C22.6362 18.75 24.7317 17.4576 25.8823 15.5292C27.033 17.4576 29.1281 18.75 31.5168 18.75H33.375V23.0625C33.375 26.6085 31.411 29.8118 28.2499 31.422C26.9271 32.0958 25.4982 32.4375 24.0029 32.4375C22.5117 32.4375 21.0872 32.0984 19.7681 31.4297C18.8829 30.9811 18.0769 30.3966 17.3719 29.6913C15.6006 27.921 14.625 25.5667 14.625 23.0625V18.75ZM19.9611 33.5647C21.2446 34.0605 22.5996 34.3125 24.0029 34.3125C25.4117 34.3125 26.7719 34.0583 28.0609 33.5574L28.656 35.8846C28.3436 38.2057 26.3745 39.9375 24.0121 39.9375C21.65 39.9375 19.6809 38.2064 19.3678 35.8861L19.9611 33.5647ZM39 24C39 24.5171 38.5807 24.9375 38.0654 24.9375H35.25V18.75H38.0654C38.5807 18.75 39 19.1704 39 19.6875V24ZM24.0029 1.875C31.2385 1.875 37.125 7.76294 37.125 15V16.875H35.2529C35.2529 10.6593 30.2223 5.625 24.0029 5.625C17.7997 5.625 12.7529 10.6718 12.7529 16.875H10.875V15C10.875 7.74829 16.7472 1.875 24.0029 1.875ZM9 24V19.6875C9 19.1715 9.42114 18.7511 9.94043 18.75H12.75V24.9375H9.94043C9.42188 24.9375 9 24.5171 9 24ZM14.0933 28.4033C14.6071 29.3525 15.2611 30.2329 16.0463 31.0173C16.7069 31.6783 17.4434 32.2496 18.2402 32.7253L17.6364 35.0885L11.941 35.8275C10.4275 35.2277 9.34424 33.8925 9.052 32.3196C11.3188 31.9658 13.2125 30.4482 14.0933 28.4033ZM11.8418 37.7307L11.9451 37.7175H11.9458C11.9465 37.7172 11.9473 37.7172 11.948 37.7172L17.6781 36.9738C18.4373 39.7947 20.9956 41.8125 24.0121 41.8125C27.0286 41.8125 29.5865 39.7947 30.3453 36.9734C30.631 37.0107 28.8402 36.7782 36.1813 37.7311C40.2913 38.265 42.75 41.3452 42.75 45.0029V46.125H5.25V45.0048C5.25 41.4155 7.70728 38.2676 11.8418 37.7307Z" fill="#17696A"/>
<path d="M21.496 28.9436C22.283 29.3146 23.1264 29.5028 24.002 29.5028C24.8574 29.5028 25.684 29.3223 26.4596 28.9663C26.9302 28.7506 27.1364 28.194 26.9203 27.7234C26.7046 27.2528 26.148 27.0463 25.6774 27.2624C25.1489 27.5048 24.5854 27.6278 24.0023 27.6278C23.4051 27.6278 22.8305 27.5 22.2954 27.2477C21.8271 27.0269 21.2686 27.2276 21.0478 27.696C20.8269 28.1643 21.0276 28.7232 21.496 28.9436Z" fill="#17696A"/>
<path d="M32.4404 43.6875H36.1904C36.7083 43.6875 37.1279 43.2678 37.1279 42.75C37.1279 42.2322 36.7083 41.8125 36.1904 41.8125H32.4404C31.9226 41.8125 31.5029 42.2322 31.5029 42.75C31.5029 43.2678 31.9226 43.6875 32.4404 43.6875Z" fill="#17696A"/>
<path d="M39.9375 41.8125C40.455 41.8125 40.875 42.2325 40.875 42.75C40.875 43.2675 40.455 43.6875 39.9375 43.6875C39.42 43.6875 39 43.2675 39 42.75C39 42.2325 39.42 41.8125 39.9375 41.8125Z" fill="#17696A"/>
</svg>
