<svg width="48" height="48" viewBox="0 0 48 48" fill="none" xmlns="http://www.w3.org/2000/svg">
<g clip-path="url(#clip0_240_744)">
<path d="M23.9901 27.2813C24.5086 27.2813 24.9294 26.8612 24.9294 26.3438C24.9294 25.8263 24.5086 25.4062 23.9901 25.4062C23.4716 25.4062 23.0508 25.8263 23.0508 26.3438C23.0508 26.8612 23.4716 27.2813 23.9901 27.2813Z" fill="#17696A"/>
<path d="M23.4545 47.7316C23.6177 47.8481 23.8089 47.9063 24.0004 47.9063C24.192 47.9063 24.3831 47.8481 24.5464 47.7316C34.117 40.9088 43.7265 37.915 43.7265 23.8762V6.49583C43.7265 6.00841 43.3518 5.60228 42.8653 5.56163L40.4237 5.35801C34.8263 4.89256 29.3194 3.05637 24.4984 0.0486758C24.1938 -0.141388 23.8071 -0.141388 23.5025 0.0486758C18.6811 3.05637 13.1742 4.89256 7.57676 5.35838L5.13559 5.56163C4.64868 5.60228 4.27441 6.00841 4.27441 6.49583V23.8762C4.27441 38.3108 15.2334 41.8708 23.4545 47.7316V47.7316ZM6.15308 7.35826L7.73307 7.22679C13.4355 6.75218 19.0465 4.92845 24.0004 1.94382C28.954 4.92845 34.5654 6.75218 40.2674 7.22679L41.8478 7.35826V23.8762C41.8478 36.5351 33.3964 39.2513 23.999 45.8215C15.7515 40.1078 6.15308 36.8654 6.15308 23.8762V7.35826Z" fill="#17696A"/>
<path d="M23.4527 40.9172C23.794 41.1498 24.2236 41.1329 24.5476 40.8927C33.0512 35.0183 38.0902 33.0854 38.0902 23.8774V11.5811C38.0902 11.1171 37.7501 10.7227 37.2903 10.6539C32.7947 9.97967 28.4683 8.58331 24.4309 6.50359C24.1403 6.35381 23.7943 6.37285 23.5279 6.52447C19.502 8.5932 15.1895 9.9826 10.7101 10.6539C10.2503 10.7227 9.91016 11.1168 9.91016 11.5811V23.8774C9.91016 33.1722 15.4291 35.4534 23.4527 40.9172V40.9172ZM11.7888 12.3806C15.6955 11.721 19.4734 10.5349 23.0513 8.84845V22.5938C23.0513 23.1117 23.4718 23.5313 23.9906 23.5313C24.5095 23.5313 24.93 23.1117 24.93 22.5938V8.83966C28.513 10.5301 32.2979 11.7195 36.2115 12.3806V23.8774C36.2115 31.4983 32.6347 33.1598 24.93 38.3604V30.0939C24.93 29.576 24.5095 29.1564 23.9906 29.1564C23.4718 29.1564 23.0513 29.576 23.0513 30.0939V38.3875C15.8525 33.6047 11.7888 31.5609 11.7888 23.8774V12.3806Z" fill="#17696A"/>
</g>
<defs>
<clipPath id="clip0_240_744">
<rect width="48" height="48" fill="white"/>
</clipPath>
</defs>
</svg>
