<svg width="16" height="17" viewBox="0 0 16 17" fill="none" xmlns="http://www.w3.org/2000/svg">
<path fill-rule="evenodd" clip-rule="evenodd" d="M6.56581 14.3332C6.65883 14.3332 6.74504 14.2837 6.79208 14.2031L6.79618 14.1961L9.85368 9.23934L9.85368 2.6665L4.1298 2.6665C4.00698 2.6665 3.90076 2.75176 3.87415 2.8715L3.87184 2.8819L2.17186 9.52164C2.14071 9.68258 2.26405 9.83317 2.42902 9.83317L5.02035 9.83317C5.45446 9.83317 5.89374 9.97821 6.21355 10.2904C6.54976 10.6185 6.70563 11.0885 6.6056 11.5948L6.12637 14.0205C6.09437 14.1824 6.21832 14.3332 6.38326 14.3332L6.56581 14.3332ZM11.187 2.6665L11.187 8.76174L13.5493 8.76174C13.6931 8.76174 13.8101 8.64573 13.8112 8.50177C13.8112 8.50176 13.8112 8.50177 13.8112 8.50177L13.8537 2.93036C13.8548 2.78506 13.7372 2.6665 13.5918 2.6665L11.187 2.6665ZM10.8924 10.0951L7.93896 14.8832C7.65208 15.3683 7.13019 15.6665 6.56581 15.6665L6.38326 15.6665C5.37812 15.6665 4.62351 14.7481 4.81832 13.7621L5.29755 11.3363C5.30608 11.2932 5.30055 11.2736 5.29922 11.2693C5.29774 11.2645 5.29449 11.2565 5.28225 11.2445C5.25437 11.2173 5.17133 11.1665 5.02035 11.1665L2.42902 11.1665C1.40837 11.1665 0.650407 10.2213 0.871792 9.2251L0.874102 9.2147L2.57524 2.57045C2.74178 1.84672 3.38625 1.33317 4.1298 1.33317L13.5918 1.33317C14.4775 1.33317 15.1938 2.05479 15.187 2.94052C15.187 2.94053 15.187 2.9405 15.187 2.94052L15.1445 8.51194C15.1378 9.38814 14.4257 10.0951 13.5493 10.0951L10.8924 10.0951Z" fill="#FF4242"/>
</svg>
