<svg width="16" height="16" viewBox="0 0 16 16" fill="none" xmlns="http://www.w3.org/2000/svg">
<path d="M11.7089 0.669678L9.85738 0.666626C7.77727 0.666626 6.43301 2.08335 6.43301 4.27611V5.94033H4.57141C4.41054 5.94033 4.28027 6.07429 4.28027 6.23954V8.6508C4.28027 8.81604 4.41069 8.94986 4.57141 8.94986H6.43301V15.0342C6.43301 15.1995 6.56328 15.3333 6.72415 15.3333H9.15302C9.31388 15.3333 9.44415 15.1993 9.44415 15.0342V8.94986H11.6208C11.7817 8.94986 11.9119 8.81604 11.9119 8.6508L11.9128 6.23954C11.9128 6.1602 11.8821 6.08421 11.8276 6.02806C11.7731 5.97191 11.6988 5.94033 11.6215 5.94033H9.44415V4.52955C9.44415 3.85148 9.60145 3.50725 10.4613 3.50725L11.7086 3.50679C11.8693 3.50679 11.9996 3.37282 11.9996 3.20773V0.968739C11.9996 0.803797 11.8695 0.669983 11.7089 0.669678Z" fill="white"/>
</svg>
