<svg width="16" height="16" viewBox="0 0 16 16" fill="none" xmlns="http://www.w3.org/2000/svg">
<path d="M8.14108 7.0018H14.7247C14.7973 7.40741 14.8337 7.79486 14.8337 8.16415C14.8337 9.47785 14.5582 10.6508 14.0073 11.683C13.4564 12.7152 12.6709 13.5218 11.6508 14.103C10.6307 14.6842 9.46083 14.9748 8.14108 14.9748C7.19062 14.9748 6.28556 14.7917 5.42591 14.4254C4.56625 14.0591 3.82465 13.5642 3.2011 12.9407C2.57755 12.3171 2.08264 11.5755 1.71638 10.7159C1.35012 9.85621 1.16699 8.95116 1.16699 8.0007C1.16699 7.05023 1.35012 6.14518 1.71638 5.28552C2.08264 4.42587 2.57755 3.68427 3.2011 3.06072C3.82465 2.43717 4.56625 1.94226 5.42591 1.576C6.28556 1.20974 7.19062 1.02661 8.14108 1.02661C9.95725 1.02661 11.5161 1.63503 12.8177 2.85186L10.9198 4.67711C10.1752 3.9567 9.24894 3.59649 8.14108 3.59649C7.36013 3.59649 6.6382 3.79324 5.9753 4.18674C5.3124 4.58025 4.78722 5.1145 4.39977 5.78951C4.01232 6.46452 3.8186 7.20158 3.8186 8.0007C3.8186 8.79981 4.01232 9.53687 4.39977 10.2119C4.78722 10.8869 5.3124 11.4211 5.9753 11.8146C6.6382 12.2082 7.36013 12.4049 8.14108 12.4049C8.66777 12.4049 9.15208 12.3323 9.59401 12.187C10.0359 12.0417 10.3992 11.8601 10.6837 11.6421C10.9682 11.4242 11.2165 11.176 11.4283 10.8975C11.6402 10.619 11.7961 10.3557 11.896 10.1075C11.9959 9.85924 12.064 9.62314 12.1003 9.39915H8.14108V7.0018Z" fill="currentColor"/>
</svg>
