<svg width="16" height="17" viewBox="0 0 16 17" fill="none" xmlns="http://www.w3.org/2000/svg">
<path fill-rule="evenodd" clip-rule="evenodd" d="M9.4547 2.66683C9.36168 2.66683 9.27547 2.71627 9.22843 2.79687L9.22433 2.80389L6.16683 7.76066V14.3335H11.8907C12.0135 14.3335 12.1198 14.2482 12.1464 14.1285L12.1487 14.1181L13.8487 7.47834C13.8798 7.31741 13.7565 7.16683 13.5915 7.16683H11.0002C10.566 7.16683 10.1268 7.02179 9.80696 6.70965C9.47075 6.3815 9.31488 5.91154 9.41491 5.40524L9.89414 2.97952C9.92614 2.81757 9.80219 2.66683 9.63725 2.66683H9.4547ZM4.8335 14.3335V8.23826H2.47118C2.32739 8.23826 2.2104 8.35427 2.20929 8.49823C2.20929 8.49824 2.20929 8.49823 2.20929 8.49823L2.16684 14.0696C2.16572 14.2149 2.28327 14.3335 2.42868 14.3335H4.8335ZM5.12809 6.90492L8.08155 2.11683C8.36843 1.63173 8.89032 1.3335 9.4547 1.3335H9.63725C10.6424 1.3335 11.397 2.25188 11.2022 3.23795L10.723 5.66366C10.7144 5.70683 10.72 5.72645 10.7213 5.73075C10.7228 5.73555 10.726 5.74353 10.7383 5.75547C10.7661 5.78268 10.8492 5.8335 11.0002 5.8335H13.5915C14.6121 5.8335 15.3701 6.77874 15.1487 7.7749L15.1464 7.7853L13.4453 14.4295C13.2788 15.1533 12.6343 15.6668 11.8907 15.6668H2.42868C1.54298 15.6668 0.826756 14.9452 0.833544 14.0595C0.833544 14.0595 0.833544 14.0595 0.833544 14.0595L0.875993 8.48806C0.88271 7.61186 1.59485 6.90492 2.47118 6.90492H5.12809Z" fill="#03CEA4"/>
</svg>
