<svg width="16" height="16" viewBox="0 0 16 16" fill="none" xmlns="http://www.w3.org/2000/svg">
<path d="M14.663 14.6666L14.6664 14.666V9.77603C14.6664 7.38381 14.1513 5.54103 11.3547 5.54103C10.0102 5.54103 9.10801 6.27881 8.73967 6.97825H8.70078V5.76436H6.04911V14.666H8.81023V10.2583C8.81023 9.0977 9.03023 7.97548 10.4675 7.97548C11.8836 7.97548 11.9047 9.29992 11.9047 10.3327V14.6666H14.663Z" fill="#787A80"/>
<path d="M1.553 5.76492H4.31745V14.6666H1.553V5.76492Z" fill="#787A80"/>
<path d="M2.93412 1.33325C2.05023 1.33325 1.33301 2.05047 1.33301 2.93436C1.33301 3.81825 2.05023 4.55047 2.93412 4.55047C3.81801 4.55047 4.53523 3.81825 4.53523 2.93436C4.53467 2.05047 3.81745 1.33325 2.93412 1.33325Z" fill="#787A80"/>
</svg>
