<svg width="16" height="16" viewBox="0 0 16 16" fill="none" xmlns="http://www.w3.org/2000/svg">
<path d="M8.20093 0.666626C4.15211 0.667237 2 3.24311 2 6.05181C2 7.35411 2.73296 8.97908 3.90656 9.49425C4.24135 9.64398 4.19704 9.46125 4.48505 8.36735C4.50782 8.27629 4.49613 8.19745 4.42228 8.11251C2.74465 6.18565 4.09488 2.22437 7.96154 2.22437C13.5575 2.22437 12.5119 9.91348 8.93512 9.91348C8.01323 9.91348 7.32643 9.1948 7.54367 8.30562C7.80707 7.24655 8.32279 6.10804 8.32279 5.34475C8.32279 3.42094 5.43648 3.70634 5.43648 6.25532C5.43648 7.04305 5.71711 7.57472 5.71711 7.57472C5.71711 7.57472 4.78845 11.3001 4.61613 11.9962C4.32443 13.1744 4.65552 15.0817 4.68445 15.2461C4.70229 15.3366 4.80445 15.3653 4.86169 15.2907C4.95338 15.1716 6.0759 13.5814 6.39038 12.4319C6.50485 12.0133 6.97441 10.3144 6.97441 10.3144C7.28396 10.8693 8.17632 11.3337 9.12713 11.3337C11.9556 11.3337 14 8.8648 14 5.80125C13.9902 2.86421 11.4589 0.666626 8.20093 0.666626V0.666626Z" fill="white"/>
</svg>
