<svg width="16" height="16" viewBox="0 0 16 16" fill="none" xmlns="http://www.w3.org/2000/svg">
<path fill-rule="evenodd" clip-rule="evenodd" d="M14.2602 2.74267C14.9455 2.92724 15.4859 3.46752 15.6703 4.15295C16.0131 5.40489 15.9999 8.0145 15.9999 8.0145C15.9999 8.0145 15.9999 10.6108 15.6705 11.8629C15.4859 12.5482 14.9456 13.0886 14.2602 13.273C13.0081 13.6026 7.99997 13.6026 7.99997 13.6026C7.99997 13.6026 3.00487 13.6026 1.73974 13.26C1.05432 13.0754 0.514036 12.535 0.329466 11.8497C0 10.6108 0 8.00132 0 8.00132C0 8.00132 0 5.40489 0.329466 4.15295C0.513914 3.46765 1.0675 2.91406 1.73962 2.72961C2.99169 2.40002 7.99984 2.40002 7.99984 2.40002C7.99984 2.40002 13.0081 2.40002 14.2602 2.74267ZM10.5699 8.00134L6.40525 10.4V5.60265L10.5699 8.00134Z" fill="white"/>
</svg>
