<svg width="20" height="20" viewBox="0 0 20 20" fill="none" xmlns="http://www.w3.org/2000/svg">
<path fill-rule="evenodd" clip-rule="evenodd" d="M18.2692 8.80623C18.1505 9.62851 17.8692 10.41 17.4524 11.1287C17.4836 11.3066 17.4996 11.4865 17.4996 11.6671C17.4996 12.2945 17.3179 12.8949 16.9811 13.4404C16.8131 13.7127 16.7698 14.0317 16.7532 14.2425C16.7341 14.4841 16.7405 14.7485 16.7578 15.0024C16.7771 15.2873 16.8121 15.5864 16.8522 15.8686C16.527 15.7737 16.1744 15.6785 15.838 15.6026C15.5581 15.5394 15.2718 15.4856 15.0124 15.4588C14.7862 15.4355 14.4593 15.4174 14.1669 15.5119C13.5277 15.7185 12.8243 15.8338 12.0829 15.8338C11.2014 15.8338 10.3917 15.6773 9.68199 15.4055C9.51128 15.4132 9.33933 15.4171 9.16626 15.4171C8.16242 15.4171 7.19626 15.2851 6.29232 15.0411C7.60645 16.561 9.77285 17.5005 12.0829 17.5005C12.9854 17.5005 13.8516 17.3619 14.6498 17.1073C14.6512 17.1074 14.6537 17.1073 14.6575 17.1072C14.678 17.1068 14.7349 17.1057 14.8412 17.1167C15.0084 17.1339 15.2233 17.1724 15.4712 17.2284C15.9649 17.3397 16.5196 17.5041 16.9519 17.6413C17.8687 17.9323 18.757 17.1323 18.5931 16.2019C18.5226 15.8015 18.4494 15.3128 18.4206 14.8895C18.4061 14.6766 18.4046 14.5019 18.4147 14.3737C18.4189 14.3205 18.4242 14.2872 18.4276 14.2695C18.8965 13.4928 19.1663 12.6086 19.1663 11.6671C19.1663 10.6058 18.8367 9.6367 18.2692 8.80623Z" fill="#787A80"/>
<path fill-rule="evenodd" clip-rule="evenodd" d="M4.66386 4.74855C3.54057 5.60754 2.91633 6.73516 2.91633 7.91675C2.91633 8.50595 3.06971 9.07341 3.35748 9.60111C3.46709 9.80209 3.49818 10.0094 3.5093 10.1498C3.52142 10.3028 3.51538 10.4601 3.50207 10.6072C3.47542 10.9017 3.41186 11.2353 3.33562 11.5639C3.24643 11.9484 3.13216 12.3583 3.0162 12.7432C3.4564 12.5833 3.93754 12.4193 4.39367 12.2862C4.76231 12.1787 5.13459 12.0853 5.46592 12.033C5.75135 11.9878 6.16553 11.9435 6.52213 12.0668C7.3224 12.3437 8.21764 12.5001 9.16633 12.5001C10.9556 12.5001 12.5447 11.9445 13.6688 11.0849C14.7921 10.226 15.4163 9.09834 15.4163 7.91675C15.4163 6.73516 14.7921 5.60754 13.6688 4.74855C12.5447 3.88897 10.9556 3.33341 9.16633 3.33341C7.37702 3.33341 5.78793 3.88897 4.66386 4.74855ZM3.65145 3.42462C5.09104 2.32375 7.04362 1.66675 9.16633 1.66675C11.289 1.66675 13.2416 2.32375 14.6812 3.42462C16.1216 4.52608 17.083 6.1068 17.083 7.91675C17.083 9.7267 16.1216 11.3074 14.6812 12.4089C13.2416 13.5097 11.289 14.1667 9.16633 14.1667C8.04711 14.1667 6.97805 13.9843 6.00739 13.6523C6.00641 13.655 5.92769 13.6473 5.72623 13.6792C5.49402 13.7159 5.19761 13.7878 4.86045 13.8862C4.18922 14.082 3.43543 14.359 2.86128 14.5825C1.86659 14.9696 0.853291 14.0143 1.18842 12.9967C1.36605 12.4574 1.57554 11.7758 1.71207 11.1873C1.78085 10.8908 1.82548 10.6416 1.84218 10.457C1.84798 10.3929 1.84948 10.3462 1.84915 10.3146C1.46558 9.58167 1.24966 8.77112 1.24966 7.91675C1.24966 6.1068 2.21108 4.52608 3.65145 3.42462Z" fill="#787A80"/>
</svg>
