<svg width="16" height="17" viewBox="0 0 16 17" fill="none" xmlns="http://www.w3.org/2000/svg">
<path fill-rule="evenodd" clip-rule="evenodd" d="M2.86177 3.36177C3.12212 3.10142 3.54423 3.10142 3.80458 3.36177L7.99983 7.55702L12.1951 3.36177C12.4554 3.10142 12.8776 3.10142 13.1379 3.36177C13.3983 3.62212 13.3983 4.04423 13.1379 4.30458L8.94264 8.49983L13.1379 12.6951C13.3983 12.9554 13.3983 13.3776 13.1379 13.6379C12.8776 13.8983 12.4554 13.8983 12.1951 13.6379L7.99983 9.44264L3.80458 13.6379C3.54423 13.8983 3.12212 13.8983 2.86177 13.6379C2.60142 13.3776 2.60142 12.9554 2.86177 12.6951L7.05702 8.49983L2.86177 4.30458C2.60142 4.04423 2.60142 3.62212 2.86177 3.36177Z" fill="currentColor"/>
</svg>
