<svg width="17" height="16" viewBox="0 0 17 16" fill="none" xmlns="http://www.w3.org/2000/svg">
<path fill-rule="evenodd" clip-rule="evenodd" d="M4.83317 6.3335C5.20136 6.3335 5.49984 6.63197 5.49984 7.00016L5.49984 14.5002C5.49984 14.8684 5.20136 15.1668 4.83317 15.1668C4.46498 15.1668 4.1665 14.8684 4.1665 14.5002L4.1665 7.00016C4.1665 6.63197 4.46498 6.3335 4.83317 6.3335Z" fill="white"/>
<path fill-rule="evenodd" clip-rule="evenodd" d="M4.83317 0.833496C5.20136 0.833496 5.49984 1.13197 5.49984 1.50016V3.50016C5.49984 3.86835 5.20136 4.16683 4.83317 4.16683C4.46498 4.16683 4.1665 3.86835 4.1665 3.50016V1.50016C4.1665 1.13197 4.46498 0.833496 4.83317 0.833496Z" fill="white"/>
<path fill-rule="evenodd" clip-rule="evenodd" d="M1.1665 4.8335C1.1665 3.72893 2.06193 2.8335 3.1665 2.8335H6.49984C7.60441 2.8335 8.49984 3.72893 8.49984 4.8335V5.66683C8.49984 6.7714 7.60441 7.66683 6.49984 7.66683H3.1665C2.06193 7.66683 1.1665 6.7714 1.1665 5.66683V4.8335ZM3.1665 4.16683C2.79831 4.16683 2.49984 4.46531 2.49984 4.8335V5.66683C2.49984 6.03502 2.79831 6.3335 3.1665 6.3335H6.49984C6.86803 6.3335 7.1665 6.03502 7.1665 5.66683V4.8335C7.1665 4.46531 6.86803 4.16683 6.49984 4.16683H3.1665Z" fill="white"/>
<path fill-rule="evenodd" clip-rule="evenodd" d="M12.1665 11.8335C12.5347 11.8335 12.8332 12.132 12.8332 12.5002V14.5002C12.8332 14.8684 12.5347 15.1668 12.1665 15.1668C11.7983 15.1668 11.4998 14.8684 11.4998 14.5002V12.5002C11.4998 12.132 11.7983 11.8335 12.1665 11.8335Z" fill="white"/>
<path fill-rule="evenodd" clip-rule="evenodd" d="M12.1665 0.833496C12.5347 0.833496 12.8332 1.13197 12.8332 1.50016V9.00016C12.8332 9.36835 12.5347 9.66683 12.1665 9.66683C11.7983 9.66683 11.4998 9.36835 11.4998 9.00016V1.50016C11.4998 1.13197 11.7983 0.833496 12.1665 0.833496Z" fill="white"/>
<path fill-rule="evenodd" clip-rule="evenodd" d="M8.49984 10.3335C8.49984 9.22893 9.39527 8.3335 10.4998 8.3335H13.8332C14.9377 8.3335 15.8332 9.22893 15.8332 10.3335V11.1668C15.8332 12.2714 14.9377 13.1668 13.8332 13.1668H10.4998C9.39527 13.1668 8.49984 12.2714 8.49984 11.1668V10.3335ZM10.4998 9.66683C10.1316 9.66683 9.83317 9.96531 9.83317 10.3335V11.1668C9.83317 11.535 10.1316 11.8335 10.4998 11.8335H13.8332C14.2014 11.8335 14.4998 11.535 14.4998 11.1668V10.3335C14.4998 9.96531 14.2014 9.66683 13.8332 9.66683H10.4998Z" fill="white"/>
</svg>
