<svg width="16" height="16" viewBox="0 0 16 16" fill="none" xmlns="http://www.w3.org/2000/svg">
<path fill-rule="evenodd" clip-rule="evenodd" d="M8.00033 0.666504C8.36852 0.666504 8.66699 0.964981 8.66699 1.33317V7.33317H14.667C15.0352 7.33317 15.3337 7.63165 15.3337 7.99984C15.3337 8.36803 15.0352 8.6665 14.667 8.6665H8.66699V14.6665C8.66699 15.0347 8.36852 15.3332 8.00033 15.3332C7.63213 15.3332 7.33366 15.0347 7.33366 14.6665V8.6665H1.33366C0.965469 8.6665 0.666992 8.36803 0.666992 7.99984C0.666992 7.63165 0.965469 7.33317 1.33366 7.33317H7.33366V1.33317C7.33366 0.964981 7.63213 0.666504 8.00033 0.666504Z" fill="#17696A"/>
</svg>
