<svg width="16" height="16" viewBox="0 0 16 16" fill="none" xmlns="http://www.w3.org/2000/svg">
<path fill-rule="evenodd" clip-rule="evenodd" d="M7.25016 2.16683C4.44272 2.16683 2.16683 4.44272 2.16683 7.25016C2.16683 10.0576 4.44272 12.3335 7.25016 12.3335C8.65276 12.3335 9.92161 11.7663 10.842 10.8472C11.7642 9.92637 12.3335 8.65539 12.3335 7.25016C12.3335 4.44272 10.0576 2.16683 7.25016 2.16683ZM0.833496 7.25016C0.833496 3.70634 3.70634 0.833496 7.25016 0.833496C10.794 0.833496 13.6668 3.70634 13.6668 7.25016C13.6668 8.78297 13.1287 10.191 12.2321 11.2944L14.9711 14.0283C15.2317 14.2884 15.2321 14.7105 14.972 14.9711C14.7119 15.2317 14.2898 15.2321 14.0292 14.972L11.2888 12.2367C10.1863 13.1305 8.78039 13.6668 7.25016 13.6668C3.70634 13.6668 0.833496 10.794 0.833496 7.25016Z" fill="#9A9CA5"/>
</svg>
