<svg width="16" height="17" viewBox="0 0 16 17" fill="none" xmlns="http://www.w3.org/2000/svg">
<path fill-rule="evenodd" clip-rule="evenodd" d="M8.00055 2.66683C6.71188 2.66683 5.66721 3.7115 5.66721 5.00016C5.66721 6.28883 6.71188 7.3335 8.00055 7.3335C9.28921 7.3335 10.3339 6.28883 10.3339 5.00016C10.3339 3.7115 9.28921 2.66683 8.00055 2.66683ZM4.33388 5.00016C4.33388 2.97512 5.9755 1.3335 8.00055 1.3335C10.0256 1.3335 11.6672 2.97512 11.6672 5.00016C11.6672 7.02521 10.0256 8.66683 8.00055 8.66683C5.9755 8.66683 4.33388 7.02521 4.33388 5.00016Z" fill="#a5a6ab"/>
<path fill-rule="evenodd" clip-rule="evenodd" d="M4.06992 10.6668C3.60771 10.6668 3.24643 10.8919 3.09979 11.2152C2.89681 11.6628 2.71301 12.1956 2.66964 12.7009C2.65025 12.9268 2.74444 13.0933 2.87423 13.1739C3.56033 13.6002 5.15014 14.3335 8.00055 14.3335C10.851 14.3335 12.4408 13.6002 13.1269 13.1739C13.2567 13.0933 13.3508 12.9268 13.3315 12.7009C13.2881 12.1956 13.1043 11.6628 12.9013 11.2152C12.7547 10.8919 12.3934 10.6668 11.9312 10.6668H4.06992ZM1.8855 10.6645C2.2908 9.77088 3.19582 9.3335 4.06992 9.3335H11.9312C12.8053 9.3335 13.7103 9.77088 14.1156 10.6645C14.3484 11.1778 14.5982 11.8678 14.6599 12.5869C14.7161 13.2417 14.4439 13.9254 13.8304 14.3065C12.9281 14.8671 11.0936 15.6668 8.00055 15.6668C4.90748 15.6668 3.07301 14.8671 2.17066 14.3065C1.55715 13.9254 1.28499 13.2417 1.34119 12.5869C1.40291 11.8678 1.65271 11.1778 1.8855 10.6645Z" fill="#a5a6ab"/>
</svg>
