<svg width="20" height="20" viewBox="0 0 20 20" fill="none" xmlns="http://www.w3.org/2000/svg">
<g clip-path="url(#clip0_0_2422)">
<path d="M19.8305 17.5817L17.9312 16.1778L14.0318 8.37107L19.8305 4.08502C20.0161 3.94831 20.0551 3.68749 19.9184 3.50234C19.78 3.31719 19.5197 3.27938 19.3357 3.41527L13.654 7.61484L10.3727 1.04551C10.2311 0.762824 9.76888 0.762824 9.62728 1.04551L6.34593 7.6148L0.664248 3.41527C0.481126 3.27938 0.21992 3.31723 0.0815637 3.50234C-0.0551524 3.68749 -0.0160907 3.94831 0.169453 4.08502L5.96821 8.37107L2.06879 16.1778L0.169453 17.5817C-0.0160907 17.7184 -0.0551524 17.9792 0.0815637 18.1644C0.16375 18.2746 0.28988 18.3332 0.416831 18.3332C0.503079 18.3332 0.590187 18.3068 0.664209 18.2514L1.24885 17.8193L0.877408 18.5629C0.813112 18.692 0.819635 18.8455 0.895298 18.9685C0.971781 19.0915 1.10608 19.1665 1.2501 19.1665H18.7498C18.8938 19.1665 19.0281 19.0915 19.1046 18.9685C19.1803 18.8455 19.1867 18.6919 19.1224 18.5629L18.751 17.8193L19.3356 18.2514C19.4097 18.3068 19.4968 18.3332 19.583 18.3332C19.71 18.3332 19.8361 18.2746 19.9183 18.1644C20.0551 17.9792 20.0161 17.7184 19.8305 17.5817ZM16.4513 15.084L10.7005 10.8333L13.3476 8.87677L16.4513 15.084ZM10 2.18198L12.9695 8.12073L10 10.3156L7.03049 8.12073L10 2.18198ZM6.65245 8.8768L9.29955 10.8334L3.54864 15.084L6.65245 8.8768ZM1.92399 18.3332L2.72741 16.7265L10 11.3511L17.2726 16.7265L18.076 18.3332H1.92399Z" fill="#787A80"/>
</g>
<defs>
<clipPath id="clip0_0_2422">
<rect width="20" height="20" fill="white"/>
</clipPath>
</defs>
</svg>
