<svg width="20" height="20" viewBox="0 0 20 20" fill="none" xmlns="http://www.w3.org/2000/svg">
<g clip-path="url(#clip0_0_2426)">
<path d="M19.1665 18.577V1.42206L19.8777 0.71081C20.0405 0.548037 20.0405 0.284365 19.8777 0.121631C19.7149 -0.0411426 19.4513 -0.0411426 19.2885 0.121631L18.5773 0.832881H1.42231L0.711016 0.121592C0.548243 -0.0411816 0.28457 -0.0411816 0.121836 0.121592C-0.0408985 0.284365 -0.0409375 0.548037 0.121836 0.710771L0.833086 1.42202V18.577L0.121836 19.2883C-0.0409375 19.451 -0.0409375 19.7147 0.121836 19.8774C0.203203 19.9588 0.309844 19.9995 0.416446 19.9995C0.523047 19.9995 0.629649 19.9588 0.711055 19.8774L1.42231 19.1662H18.5773L19.2885 19.8774C19.3699 19.9588 19.4765 19.9995 19.5831 19.9995C19.6897 19.9995 19.7963 19.9588 19.8777 19.8774C20.0405 19.7147 20.0405 19.451 19.8777 19.2883L19.1665 18.577ZM9.99977 1.6662H17.7439L15.581 3.82913C14.1018 2.48991 12.1477 1.6662 9.99977 1.6662C7.85188 1.6662 5.89774 2.48991 4.41856 3.82913L2.25563 1.6662H9.99977ZM9.41059 9.99952L4.41844 14.9916C3.22969 13.664 2.49977 11.9175 2.49977 9.99952C2.49977 8.08155 3.22969 6.33503 4.41844 5.00741L9.41059 9.99952ZM5.00766 4.41819C6.33528 3.22944 8.0818 2.49952 9.99977 2.49952C11.9177 2.49952 13.6643 3.22944 14.9919 4.41819L9.99977 9.41034L5.00766 4.41819ZM9.99977 10.5887L14.9919 15.5808C13.6643 16.7696 11.9177 17.4995 9.99977 17.4995C8.0818 17.4995 6.33528 16.7696 5.00766 15.5808L9.99977 10.5887ZM10.589 9.99952L15.5811 5.00741C16.7699 6.33503 17.4998 8.08155 17.4998 9.99952C17.4998 11.9175 16.7699 13.664 15.5811 14.9916L10.589 9.99952ZM1.66645 9.99952V2.25538L3.82938 4.41831C2.49016 5.89749 1.66645 7.85163 1.66645 9.99952C1.66645 12.1474 2.49016 14.1016 3.82938 15.5807L1.66645 17.7437V9.99952ZM9.99977 18.3328H2.25563L4.41856 16.1699C5.89774 17.5091 7.85188 18.3328 9.99977 18.3328C12.1477 18.3328 14.1018 17.5091 15.581 16.1699L17.7439 18.3328H9.99977ZM18.3331 9.99952V17.7437L16.1702 15.5807C17.5094 14.1016 18.3331 12.1474 18.3331 9.99952C18.3331 7.85163 17.5094 5.89749 16.1702 4.41831L18.3331 2.25538V9.99952Z" fill="#787A80"/>
</g>
<defs>
<clipPath id="clip0_0_2426">
<rect width="20" height="20" fill="white"/>
</clipPath>
</defs>
</svg>
