<svg width="20" height="20" viewBox="0 0 20 20" fill="none" xmlns="http://www.w3.org/2000/svg">
<path fill-rule="evenodd" clip-rule="evenodd" d="M7.08317 2.43498C6.39281 2.43498 5.83317 2.99462 5.83317 3.68498V16.3152C5.83317 17.0055 6.39281 17.5652 7.08317 17.5652H12.9165C13.6069 17.5652 14.1665 17.0055 14.1665 16.3152V3.68498C14.1665 2.99462 13.6069 2.43498 12.9165 2.43498H12.847L12.644 2.92202C12.5146 3.23253 12.2112 3.43479 11.8748 3.43479H8.12484C7.78844 3.43479 7.48503 3.23253 7.35563 2.92202L7.15266 2.43498H7.08317ZM4.1665 3.68498C4.1665 2.07415 5.47234 0.768311 7.08317 0.768311H12.9165C14.5273 0.768311 15.8332 2.07415 15.8332 3.68498V16.3152C15.8332 17.926 14.5273 19.2319 12.9165 19.2319H7.08317C5.47234 19.2319 4.1665 17.926 4.1665 16.3152V3.68498Z" fill="#17696A"/>
</svg>
