<svg width="20" height="20" viewBox="0 0 20 20" fill="none" xmlns="http://www.w3.org/2000/svg">
<path fill-rule="evenodd" clip-rule="evenodd" d="M18.9582 14.9999V5.83325C18.9582 4.45254 17.8389 3.33325 16.4582 3.33325L3.5415 3.33326C2.16079 3.33327 1.0415 4.45255 1.0415 5.83326V14.9999C1.0415 16.3806 2.16079 17.4999 3.5415 17.4999L16.4582 17.4999C17.8389 17.4999 18.9582 16.3806 18.9582 14.9999ZM17.2915 7.71614V14.9999C17.2915 15.4602 16.9184 15.8332 16.4582 15.8332L3.54151 15.8332C3.08127 15.8332 2.70817 15.4602 2.70817 14.9999L2.70817 7.71603L8.59414 11.7185C9.44254 12.2954 10.5573 12.2954 11.4057 11.7185L17.2915 7.71614ZM17.282 5.70709C17.2212 5.30672 16.8755 4.99992 16.4582 4.99992L3.5415 4.99993C3.12419 4.99993 2.77852 5.30668 2.71768 5.70699L9.53133 10.3403C9.81413 10.5326 10.1857 10.5326 10.4685 10.3403L17.282 5.70709Z" fill="#17696A"/>
</svg>
