<svg width="20" height="20" viewBox="0 0 20 20" fill="none" xmlns="http://www.w3.org/2000/svg">
<path fill-rule="evenodd" clip-rule="evenodd" d="M5.00033 2.70841C4.07985 2.70841 3.33366 3.45461 3.33366 4.37508L3.33366 15.6251C3.33366 16.5456 4.07985 17.2917 5.00033 17.2917H15.0003C15.9208 17.2917 16.667 16.5456 16.667 15.6251V4.37509C16.667 3.45462 15.9208 2.70843 15.0003 2.70843L5.00033 2.70841ZM1.66699 4.37508C1.66699 2.53413 3.15938 1.04174 5.00033 1.04175L15.0003 1.04176C16.8413 1.04176 18.3337 2.53415 18.3337 4.37509V15.6251C18.3337 17.466 16.8413 18.9584 15.0003 18.9584H5.00033C3.15938 18.9584 1.66699 17.466 1.66699 15.6251L1.66699 4.37508ZM13.7503 4.16673C14.2106 4.16673 14.5837 4.53982 14.5837 5.00006L14.5837 6.25006C14.5837 8.78137 12.5316 10.8334 10.0003 10.8334C7.46902 10.8334 5.41699 8.78137 5.41699 6.25006V5.00006C5.41699 4.53982 5.79009 4.16673 6.25032 4.16673C6.71056 4.16673 7.08366 4.53982 7.08366 5.00006V6.25006C7.08366 7.86089 8.38949 9.16673 10.0003 9.16673C11.6112 9.16673 12.917 7.86089 12.917 6.25006L12.917 5.00006C12.917 4.53982 13.2901 4.16673 13.7503 4.16673Z" fill="#424551"/>
</svg>
