<svg width="16" height="17" viewBox="0 0 16 17" fill="none" xmlns="http://www.w3.org/2000/svg">
<path d="M8.6665 4.83341C8.6665 4.46522 8.36803 4.16675 7.99984 4.16675C7.63165 4.16675 7.33317 4.46522 7.33317 4.83341V8.50008C7.33317 8.67689 7.40341 8.84646 7.52843 8.97149L9.52843 10.9715C9.78878 11.2318 10.2109 11.2318 10.4712 10.9715C10.7316 10.7111 10.7316 10.289 10.4712 10.0287L8.6665 8.22394V4.83341Z" fill="#787A80"/>
<path fill-rule="evenodd" clip-rule="evenodd" d="M7.99984 1.16675C3.94975 1.16675 0.666504 4.44999 0.666504 8.50008C0.666504 12.5502 3.94975 15.8334 7.99984 15.8334C12.0499 15.8334 15.3332 12.5502 15.3332 8.50008C15.3332 4.44999 12.0499 1.16675 7.99984 1.16675ZM1.99984 8.50008C1.99984 5.18637 4.68613 2.50008 7.99984 2.50008C11.3135 2.50008 13.9998 5.18637 13.9998 8.50008C13.9998 11.8138 11.3135 14.5001 7.99984 14.5001C4.68613 14.5001 1.99984 11.8138 1.99984 8.50008Z" fill="#787A80"/>
</svg>
