<svg width="20" height="20" viewBox="0 0 20 20" fill="none" xmlns="http://www.w3.org/2000/svg">
<path fill-rule="evenodd" clip-rule="evenodd" d="M6.0415 3.12508C6.0415 1.97449 6.97424 1.04175 8.12484 1.04175H11.8748C13.0254 1.04175 13.9582 1.97449 13.9582 3.12508V3.54175H18.1248C18.5851 3.54175 18.9582 3.91484 18.9582 4.37508C18.9582 4.83532 18.5851 5.20842 18.1248 5.20842H17.0832V15.6251C17.0832 17.466 15.5908 18.9584 13.7498 18.9584H6.24984C4.40889 18.9584 2.9165 17.466 2.9165 15.6251V5.20842H1.87484C1.4146 5.20842 1.0415 4.83532 1.0415 4.37508C1.0415 3.91484 1.4146 3.54175 1.87484 3.54175H6.0415V3.12508ZM7.70817 3.54175H12.2915V3.12508C12.2915 2.89496 12.105 2.70841 11.8748 2.70841H8.12484C7.89472 2.70841 7.70817 2.89496 7.70817 3.12508V3.54175ZM4.58317 5.20842V15.6251C4.58317 16.5456 5.32936 17.2917 6.24984 17.2917H13.7498C14.6703 17.2917 15.4165 16.5456 15.4165 15.6251V5.20842H4.58317ZM9.99984 6.66675C10.4601 6.66675 10.8332 7.03984 10.8332 7.50008L10.8332 15.0001C10.8332 15.4603 10.4601 15.8334 9.99984 15.8334C9.5396 15.8334 9.1665 15.4603 9.1665 15.0001L9.1665 7.50008C9.1665 7.03984 9.5396 6.66675 9.99984 6.66675Z" fill="#FF4242"/>
</svg>
