<svg width="20" height="20" viewBox="0 0 20 20" fill="none" xmlns="http://www.w3.org/2000/svg">
<path d="M2.20021 7.09822C4.45364 5.21822 7.04787 4.16667 9.79136 4.16667C12.5349 4.16667 15.1291 5.21822 17.3825 7.09822C17.7359 7.39305 18.2614 7.34558 18.5562 6.99218C18.8511 6.63878 18.8036 6.11328 18.4502 5.81845C15.9445 3.72796 12.9826 2.5 9.79136 2.5C6.60016 2.5 3.63824 3.72796 1.13252 5.81845C0.779117 6.11328 0.731642 6.63878 1.02648 6.99218C1.32131 7.34558 1.84681 7.39305 2.20021 7.09822Z" fill="#424551"/>
<path fill-rule="evenodd" clip-rule="evenodd" d="M3.41699 8.07419C4.91576 6.80886 7.05338 5.625 9.47884 5.625C11.9043 5.625 14.0419 6.80886 15.5407 8.07419C16.2962 8.71204 16.9157 9.39204 17.3534 9.99941C17.5719 10.3025 17.7541 10.5999 17.8852 10.8756C18.0056 11.1289 18.1247 11.4486 18.1247 11.7708C18.1247 12.0931 18.0056 12.4127 17.8852 12.666C17.7541 12.9418 17.5719 13.2392 17.3534 13.5423C16.9157 14.1496 16.2962 14.8296 15.5407 15.4675C14.0419 16.7328 11.9043 17.9167 9.47884 17.9167C7.05338 17.9167 4.91576 16.7328 3.41699 15.4675C2.66146 14.8296 2.04201 14.1496 1.60425 13.5423C1.3858 13.2392 1.20362 12.9418 1.07249 12.666C0.952042 12.4127 0.833008 12.0931 0.833008 11.7708C0.833008 11.4486 0.952042 11.1289 1.07249 10.8756C1.20362 10.5999 1.3858 10.3025 1.60425 9.99941C2.04201 9.39204 2.66146 8.71204 3.41699 8.07419ZM2.50558 11.7708C2.51401 11.7991 2.53347 11.8574 2.57764 11.9503C2.65465 12.1122 2.77944 12.3223 2.95632 12.5677C3.30923 13.0574 3.83389 13.6382 4.49215 14.194C5.82095 15.3158 7.58958 16.25 9.47884 16.25C11.3681 16.25 13.1367 15.3158 14.4655 14.194C15.1238 13.6382 15.6485 13.0574 16.0014 12.5677C16.1782 12.3223 16.303 12.1122 16.38 11.9503C16.4242 11.8574 16.4437 11.799 16.4521 11.7708C16.4437 11.7426 16.4242 11.6843 16.38 11.5914C16.303 11.4295 16.1782 11.2193 16.0014 10.9739C15.6485 10.4843 15.1238 9.90343 14.4655 9.3477C14.186 9.11173 13.8871 8.88407 13.5716 8.67166C13.6875 9.05945 13.7497 9.47038 13.7497 9.89583C13.7497 12.2545 11.8376 14.1667 9.47884 14.1667C7.12012 14.1667 5.20801 12.2545 5.20801 9.89583C5.20801 9.47038 5.27022 9.05945 5.38604 8.67166C5.0706 8.88407 4.77164 9.11174 4.49215 9.3477C3.83389 9.90343 3.30923 10.4843 2.95632 10.9739C2.77944 11.2193 2.65465 11.4295 2.57764 11.5914C2.53347 11.6843 2.51401 11.7426 2.50558 11.7708ZM6.87467 9.89583C6.87467 8.45759 8.0406 7.29167 9.47884 7.29167C10.9171 7.29167 12.083 8.45759 12.083 9.89583C12.083 11.3341 10.9171 12.5 9.47884 12.5C8.0406 12.5 6.87467 11.3341 6.87467 9.89583Z" fill="#424551"/>
</svg>
