<svg width="20" height="20" viewBox="0 0 20 20" fill="none" xmlns="http://www.w3.org/2000/svg">
<path d="M13.7497 17.2917C14.2099 17.2917 14.583 17.6648 14.583 18.1251C14.583 18.5853 14.2099 18.9584 13.7497 18.9584H5.208C2.90682 18.9584 1.04134 17.0929 1.04134 14.7917V5.20841C1.04134 2.90723 2.90682 1.04175 5.20801 1.04175H13.7497C14.2099 1.04175 14.583 1.41484 14.583 1.87508C14.583 2.33532 14.2099 2.70841 13.7497 2.70841L5.20801 2.70841C3.82729 2.70841 2.708 3.8277 2.708 5.20841V14.7917C2.708 16.1725 3.82729 17.2917 5.208 17.2917H13.7497Z" fill="#424551"/>
<path d="M4.79134 10.0001C4.79134 10.2211 4.87914 10.4331 5.03542 10.5893L8.78542 14.3393C9.11086 14.6648 9.63849 14.6648 9.96393 14.3393C10.2894 14.0139 10.2894 13.4863 9.96393 13.1608L7.63652 10.8334L18.1247 10.8334C18.5849 10.8334 18.958 10.4603 18.958 10.0001C18.958 9.53984 18.5849 9.16675 18.1247 9.16675L7.63652 9.16675L9.96393 6.83934C10.2894 6.5139 10.2894 5.98626 9.96393 5.66083C9.63849 5.33539 9.11086 5.33539 8.78542 5.66083L5.03542 9.41083C4.87914 9.56711 4.79134 9.77907 4.79134 10.0001Z" fill="#424551"/>
</svg>
