<svg width="20" height="20" viewBox="0 0 20 20" fill="none" xmlns="http://www.w3.org/2000/svg">
<path fill-rule="evenodd" clip-rule="evenodd" d="M10.0002 2.70841C8.38937 2.70841 7.08353 4.01425 7.08353 5.62508C7.08353 7.23591 8.38937 8.54175 10.0002 8.54175C11.611 8.54175 12.9169 7.23591 12.9169 5.62508C12.9169 4.01425 11.611 2.70841 10.0002 2.70841ZM5.41686 5.62508C5.41686 3.09378 7.46889 1.04175 10.0002 1.04175C12.5315 1.04175 14.5835 3.09378 14.5835 5.62508C14.5835 8.15639 12.5315 10.2084 10.0002 10.2084C7.46889 10.2084 5.41686 8.15639 5.41686 5.62508Z" fill="white"/>
<path fill-rule="evenodd" clip-rule="evenodd" d="M5.08691 12.7084C4.50914 12.7084 4.05756 12.9897 3.87424 13.3939C3.62053 13.9534 3.39078 14.6194 3.33656 15.2511C3.31233 15.5334 3.43007 15.7415 3.5923 15.8423C4.44993 16.3751 6.43719 17.2917 10.0002 17.2917C13.5632 17.2917 15.5505 16.3751 16.4081 15.8423C16.5703 15.7415 16.6881 15.5334 16.6638 15.2511C16.6096 14.6194 16.3799 13.9534 16.1261 13.3939C15.9428 12.9897 15.4913 12.7084 14.9135 12.7084H5.08691ZM2.35639 12.7055C2.86301 11.5885 3.99429 11.0417 5.08691 11.0417H14.9135C16.0061 11.0417 17.1374 11.5885 17.644 12.7055C17.935 13.3472 18.2472 14.2097 18.3244 15.1085C18.3946 15.9271 18.0544 16.7817 17.2876 17.2581C16.1596 17.9587 13.8665 18.9584 10.0002 18.9584C6.13386 18.9584 3.84078 17.9587 2.71283 17.2581C1.94595 16.7817 1.60575 15.9271 1.676 15.1085C1.75315 14.2097 2.0654 13.3472 2.35639 12.7055Z" fill="white"/>
</svg>
