<svg width="20" height="20" viewBox="0 0 20 20" fill="none" xmlns="http://www.w3.org/2000/svg">
<path fill-rule="evenodd" clip-rule="evenodd" d="M8.47402 1.83459C9.05298 0.499472 10.9464 0.49947 11.5253 1.83459L13.2767 5.87335L17.6589 6.29093C19.1076 6.42898 19.6927 8.2297 18.6019 9.19289L15.302 12.1066L16.259 16.4034C16.5754 17.8238 15.0436 18.9367 13.7905 18.1969L9.99967 15.9589L6.20889 18.1969C4.95574 18.9367 3.42395 17.8238 3.74033 16.4034L4.69738 12.1066L1.3975 9.19289C0.306626 8.2297 0.891716 6.42898 2.3404 6.29093L6.72268 5.87335L8.47402 1.83459ZM11.751 6.53492L9.99967 2.49617L8.24833 6.53492C8.00737 7.09059 7.48336 7.47131 6.88042 7.52877L2.49814 7.94635L5.79803 10.86C6.25205 11.2609 6.4522 11.8769 6.32053 12.4681L5.36347 16.7649L9.15426 14.5269C9.67581 14.219 10.3235 14.219 10.8451 14.5269L14.6359 16.7649L13.6788 12.4681C13.5471 11.8769 13.7473 11.2609 14.2013 10.86L17.5012 7.94635L13.1189 7.52877C12.516 7.47131 11.992 7.09059 11.751 6.53492Z" fill="#424551"/>
</svg>
