<svg width="17" height="16" viewBox="0 0 17 16" fill="none" xmlns="http://www.w3.org/2000/svg">
<path fill-rule="evenodd" clip-rule="evenodd" d="M2.59489 2.00518C2.52978 2.00028 2.43943 1.99984 2.26998 1.99984H1.16715C0.798965 1.99984 0.500488 1.70136 0.500488 1.33317C0.500488 0.964984 0.798965 0.666507 1.16715 0.666507H2.26998C2.27627 0.666507 2.28255 0.666506 2.28884 0.666505C2.43195 0.666488 2.57364 0.66647 2.69507 0.67562C2.8302 0.685801 2.98719 0.709715 3.14959 0.782161C3.37816 0.884118 3.57342 1.04835 3.71303 1.25606C3.81223 1.40366 3.86269 1.55423 3.89587 1.68561C3.92569 1.80368 3.94995 1.94328 3.97446 2.08427C3.97553 2.09046 3.97661 2.09666 3.97768 2.10285L4.13653 3.01623L12.8125 3.27305C13.1525 3.2831 13.4463 3.29179 13.6883 3.31844C13.9441 3.34661 14.1976 3.39957 14.4409 3.52916C14.8094 3.72552 15.1073 4.03233 15.2927 4.40655C15.415 4.65352 15.4604 4.90854 15.481 5.16503C15.5005 5.40768 15.5005 5.70161 15.5005 6.04174V6.09091C15.5005 6.41056 15.5005 6.68783 15.4826 6.91776C15.4636 7.1616 15.4217 7.40379 15.31 7.6411C15.14 8.00231 14.8658 8.30436 14.5226 8.50839C14.2972 8.64244 14.0601 8.70745 13.8193 8.74984C13.5921 8.7898 13.3162 8.8165 12.998 8.84728L6.50875 9.47527C6.18262 9.50685 5.90005 9.5342 5.6643 9.53835C5.41452 9.54274 5.16409 9.52334 4.91268 9.43098C4.53563 9.29247 4.20902 9.04364 3.9754 8.71688C3.81962 8.499 3.73444 8.26271 3.67237 8.02072C3.61379 7.79233 3.56516 7.51264 3.50903 7.18984L2.66407 2.3313C2.63504 2.16437 2.61912 2.07542 2.60313 2.01212C2.60257 2.00987 2.60202 2.00773 2.60149 2.00571C2.5994 2.00553 2.5972 2.00536 2.59489 2.00518ZM4.36972 4.35705L4.81845 6.93724C4.87998 7.29107 4.91999 7.51826 4.9639 7.68946C5.00578 7.85275 5.03891 7.91187 5.06002 7.94139C5.13789 8.05031 5.24676 8.13326 5.37244 8.17943C5.40651 8.19194 5.4723 8.20819 5.64085 8.20522C5.81757 8.20211 6.04723 8.18037 6.4047 8.14578L12.8456 7.52247C13.1945 7.4887 13.4183 7.46657 13.5882 7.43668C13.75 7.40821 13.8104 7.38065 13.8412 7.36234C13.9556 7.29433 14.047 7.19364 14.1037 7.07324C14.1189 7.04081 14.1405 6.97804 14.1533 6.81425C14.1667 6.6423 14.1672 6.41742 14.1672 6.06684C14.1672 5.69451 14.1667 5.4546 14.152 5.27171C14.1379 5.09671 14.1141 5.0311 14.0979 4.99838C14.0361 4.87364 13.9368 4.77136 13.8139 4.70591C13.7817 4.68874 13.7168 4.66298 13.5423 4.64376C13.36 4.62367 13.1202 4.61607 12.748 4.60506L4.36972 4.35705Z" fill="white"/>
<path fill-rule="evenodd" clip-rule="evenodd" d="M6.16716 11.6665C5.79897 11.6665 5.50049 11.965 5.50049 12.3332C5.50049 12.7014 5.79897 12.9998 6.16716 12.9998C6.53535 12.9998 6.83382 12.7014 6.83382 12.3332C6.83382 11.965 6.53535 11.6665 6.16716 11.6665ZM4.16716 12.3332C4.16716 11.2286 5.06259 10.3332 6.16716 10.3332C7.27172 10.3332 8.16716 11.2286 8.16716 12.3332C8.16716 13.4377 7.27172 14.3332 6.16716 14.3332C5.06259 14.3332 4.16716 13.4377 4.16716 12.3332Z" fill="white"/>
<path fill-rule="evenodd" clip-rule="evenodd" d="M12.5005 11.6665C12.1323 11.6665 11.8338 11.965 11.8338 12.3332C11.8338 12.7014 12.1323 12.9998 12.5005 12.9998C12.8687 12.9998 13.1672 12.7014 13.1672 12.3332C13.1672 11.965 12.8687 11.6665 12.5005 11.6665ZM10.5005 12.3332C10.5005 11.2286 11.3959 10.3332 12.5005 10.3332C13.6051 10.3332 14.5005 11.2286 14.5005 12.3332C14.5005 13.4377 13.6051 14.3332 12.5005 14.3332C11.3959 14.3332 10.5005 13.4377 10.5005 12.3332Z" fill="white"/>
</svg>
