<svg width="16" height="16" viewBox="0 0 16 16" fill="none" xmlns="http://www.w3.org/2000/svg">
<g clip-path="url(#clip0_0_2025)">
<path fill-rule="evenodd" clip-rule="evenodd" d="M4.83301 2.50016C4.83301 1.57969 5.5792 0.833496 6.49967 0.833496H9.49967C10.4201 0.833496 11.1663 1.57969 11.1663 2.50016V2.8335H14.4997C14.8679 2.8335 15.1663 3.13197 15.1663 3.50016C15.1663 3.86835 14.8679 4.16683 14.4997 4.16683H13.6663V12.5002C13.6663 13.9729 12.4724 15.1668 10.9997 15.1668H4.99967C3.52692 15.1668 2.33301 13.9729 2.33301 12.5002V4.16683H1.49967C1.13148 4.16683 0.833008 3.86835 0.833008 3.50016C0.833008 3.13197 1.13148 2.8335 1.49967 2.8335H4.83301V2.50016ZM6.16634 2.8335H9.83301V2.50016C9.83301 2.31607 9.68377 2.16683 9.49967 2.16683H6.49967C6.31558 2.16683 6.16634 2.31607 6.16634 2.50016V2.8335ZM3.66634 4.16683V12.5002C3.66634 13.2365 4.26329 13.8335 4.99967 13.8335H10.9997C11.7361 13.8335 12.333 13.2365 12.333 12.5002V4.16683H3.66634ZM7.99967 5.3335C8.36786 5.3335 8.66634 5.63197 8.66634 6.00016L8.66634 12.0002C8.66634 12.3684 8.36786 12.6668 7.99968 12.6668C7.63148 12.6668 7.33301 12.3684 7.33301 12.0002L7.33301 6.00016C7.33301 5.63197 7.63148 5.3335 7.99967 5.3335Z" fill="#787A80"/>
</g>
<defs>
<clipPath id="clip0_0_2025">
<rect width="16" height="16" fill="white"/>
</clipPath>
</defs>
</svg>
