<svg width="20" height="20" viewBox="0 0 20 20" fill="none" xmlns="http://www.w3.org/2000/svg">
<path d="M14.6357 0.837311L12.3214 0.833496C9.72122 0.833496 8.0409 2.6044 8.0409 5.34535V7.42562H5.71389C5.51281 7.42562 5.34998 7.59308 5.34998 7.79964V10.8137C5.34998 11.0203 5.51299 11.1875 5.71389 11.1875H8.0409V18.793C8.0409 18.9996 8.20373 19.1668 8.40482 19.1668H11.4409C11.642 19.1668 11.8048 18.9994 11.8048 18.793V11.1875H14.5256C14.7267 11.1875 14.8896 11.0203 14.8896 10.8137L14.8907 7.79964C14.8907 7.70046 14.8522 7.60548 14.7841 7.53529C14.716 7.4651 14.6231 7.42562 14.5266 7.42562H11.8048V5.66215C11.8048 4.81456 12.0014 4.38428 13.0763 4.38428L14.6354 4.3837C14.8363 4.3837 14.9991 4.21624 14.9991 4.00988V1.21114C14.9991 1.00496 14.8365 0.837692 14.6357 0.837311Z" fill="#787A80"/>
</svg>
