<svg width="16" height="16" viewBox="0 0 16 16" fill="none" xmlns="http://www.w3.org/2000/svg">
<g clip-path="url(#clip0_0_3027)">
<path d="M15.2229 10.7393C15.2228 10.7393 15.2228 10.7393 15.2229 10.7393L9.46205 7.13893C9.36161 7.07615 9.24553 7.04285 9.1271 7.04285H8.63254V6.77421C9.61064 6.49806 10.3296 5.59751 10.3296 4.53223C10.3296 3.24796 9.28475 2.20312 8.00049 2.20312C6.71619 2.20312 5.67139 3.24796 5.67139 4.53223C5.67139 4.8813 5.95437 5.16428 6.30344 5.16428C6.65252 5.16428 6.9355 4.8813 6.9355 4.53223C6.9355 3.94499 7.41322 3.46723 8.00049 3.46723C8.58772 3.46723 9.06544 3.94499 9.06544 4.53223C9.06544 5.11946 8.58768 5.59722 8.00049 5.59722C7.65141 5.59722 7.36843 5.8802 7.36843 6.22927V7.04285H6.87388C6.75545 7.04285 6.63937 7.07615 6.53893 7.13893L0.778096 10.7393C0.291197 11.0436 0.000488281 11.5681 0.000488281 12.1423C0.000488281 13.0546 0.7427 13.7968 1.65499 13.7968H14.346C15.2583 13.7968 16.0005 13.0546 16.0005 12.1423C16.0005 11.5681 15.7098 11.0436 15.2229 10.7393ZM14.346 12.5327H1.65499C1.43973 12.5327 1.2646 12.3576 1.2646 12.1423C1.2646 12.0068 1.33318 11.883 1.44807 11.8112L7.05512 8.30696H8.94582L14.5529 11.8112C14.6678 11.883 14.7364 12.0068 14.7364 12.1423C14.7364 12.3576 14.5612 12.5327 14.346 12.5327Z" fill="#424551"/>
</g>
<defs>
<clipPath id="clip0_0_3027">
<rect width="16" height="16" fill="white" transform="translate(0.000488281)"/>
</clipPath>
</defs>
</svg>
