<svg width="120" height="64" viewBox="0 0 120 64" fill="none" xmlns="http://www.w3.org/2000/svg">
<rect x="0.500488" y="0.5" width="119" height="63" rx="3.5" fill="#F4F5F7"/>
<path d="M86.2 52.4262V52.5341H86.3007C86.3196 52.5344 86.3382 52.5297 86.3546 52.5204C86.3612 52.5157 86.3665 52.5095 86.37 52.5023C86.3736 52.4951 86.3752 52.4871 86.3749 52.4791C86.3752 52.4712 86.3735 52.4634 86.37 52.4563C86.3665 52.4493 86.3612 52.4433 86.3546 52.4388C86.3384 52.4291 86.3196 52.4243 86.3007 52.4251H86.2V52.4262ZM86.3017 52.3498C86.3449 52.3471 86.3876 52.3595 86.4227 52.3849C86.4367 52.3964 86.4478 52.411 86.4552 52.4276C86.4626 52.4442 86.4659 52.4623 86.465 52.4804C86.4657 52.496 86.463 52.5116 86.4571 52.5261C86.4512 52.5405 86.4423 52.5536 86.431 52.5643C86.404 52.5878 86.3701 52.6019 86.3344 52.6046L86.4693 52.7584H86.3654L86.2413 52.6056H86.2011V52.7584H86.1142V52.35H86.3031L86.3017 52.3498ZM86.2748 52.8993C86.3203 52.8997 86.3655 52.8905 86.4073 52.8723C86.4476 52.855 86.4842 52.8301 86.5152 52.7992C86.5463 52.7682 86.5712 52.7316 86.5884 52.6912C86.6238 52.6057 86.6238 52.5095 86.5884 52.424C86.5709 52.3838 86.5461 52.3472 86.5152 52.316C86.4842 52.2851 86.4475 52.2603 86.4073 52.2429C86.3652 52.2257 86.3202 52.217 86.2748 52.2175C86.2285 52.2171 86.1827 52.2257 86.1398 52.2429C86.0986 52.2599 86.0611 52.2848 86.0294 52.316C85.9817 52.365 85.9494 52.427 85.9366 52.4941C85.9238 52.5613 85.931 52.6308 85.9574 52.6939C85.9738 52.7344 85.9983 52.7711 86.0294 52.8019C86.0612 52.8331 86.0986 52.858 86.1398 52.875C86.1824 52.8932 86.2284 52.9024 86.2748 52.902V52.8993ZM86.2748 52.1193C86.3934 52.1192 86.5073 52.1657 86.5919 52.2488C86.6327 52.2888 86.6651 52.3364 86.6874 52.3889C86.7105 52.4429 86.7224 52.5009 86.7224 52.5596C86.7224 52.6183 86.7105 52.6764 86.6874 52.7303C86.6646 52.7826 86.6322 52.8301 86.5919 52.8704C86.5505 52.9101 86.5023 52.9421 86.4496 52.9649C86.3943 52.9884 86.3348 53.0003 86.2748 53C86.214 53.0004 86.1537 52.9885 86.0977 52.9649C86.0444 52.9426 85.9958 52.9106 85.9544 52.8704C85.9141 52.8286 85.8821 52.7795 85.8602 52.7257C85.8371 52.6718 85.8252 52.6137 85.8252 52.555C85.8252 52.4964 85.8371 52.4383 85.8602 52.3843C85.8825 52.3318 85.9149 52.2842 85.9557 52.2443C85.9966 52.2034 86.0454 52.1712 86.0991 52.1498C86.1551 52.1262 86.2153 52.1143 86.2761 52.1147L86.2748 52.1193ZM44.9485 50.5423C44.9485 49.7636 45.4586 49.124 46.2923 49.124C47.089 49.124 47.6266 49.7361 47.6266 50.5423C47.6266 51.3485 47.089 51.9606 46.2923 51.9606C45.4586 51.9606 44.9485 51.3209 44.9485 50.5423ZM48.5348 50.5423V48.3265H47.5716V48.8662C47.266 48.4673 46.8026 48.2172 46.1724 48.2172C44.9309 48.2172 43.9566 49.1909 43.9566 50.5434C43.9566 51.8958 44.9304 52.8696 46.1724 52.8696C46.8024 52.8696 47.266 52.6191 47.5716 52.2205V52.7584H48.5337V50.5423H48.5348ZM81.082 50.5423C81.082 49.7636 81.5921 49.124 82.426 49.124C83.2236 49.124 83.7604 49.7361 83.7604 50.5423C83.7604 51.3485 83.2236 51.9606 82.426 51.9606C81.5923 51.9606 81.082 51.3209 81.082 50.5423ZM84.6694 50.5423V46.5479H83.7054V48.8662C83.3998 48.4673 82.9364 48.2172 82.3062 48.2172C81.0647 48.2172 80.0904 49.1909 80.0904 50.5434C80.0904 51.8958 81.0642 52.8696 82.3062 52.8696C82.9364 52.8696 83.3998 52.6191 83.7054 52.2205V52.7584H84.6694V50.5423ZM60.4901 49.0784C61.1108 49.0784 61.5095 49.4676 61.6112 50.1528H59.3128C59.4156 49.5132 59.804 49.0784 60.4903 49.0784H60.4901ZM60.5095 48.2147C59.2113 48.2147 58.3031 49.1594 58.3031 50.5409C58.3031 51.9495 59.2478 52.8672 60.574 52.8672C61.2412 52.8672 61.8522 52.7006 62.3899 52.2464L61.9178 51.5325C61.5464 51.8294 61.0736 51.9959 60.6291 51.9959C60.0083 51.9959 59.4432 51.7085 59.3042 50.911H62.5934C62.6028 50.7911 62.6125 50.6702 62.6125 50.5407C62.6028 49.1596 61.7489 48.2145 60.509 48.2145L60.5095 48.2147ZM72.1387 50.5407C72.1387 49.762 72.6488 49.1224 73.4825 49.1224C74.2793 49.1224 74.8169 49.7345 74.8169 50.5407C74.8169 51.3469 74.2793 51.959 73.4825 51.959C72.6488 51.959 72.1385 51.3193 72.1385 50.5407H72.1387ZM75.7248 50.5407V48.3265H74.7621V48.8662C74.4555 48.4673 73.9932 48.2172 73.363 48.2172C72.1215 48.2172 71.1471 49.1909 71.1471 50.5434C71.1471 51.8958 72.1209 52.8696 73.363 52.8696C73.9932 52.8696 74.4555 52.6191 74.7621 52.2205V52.7584H75.7251V50.5423L75.7248 50.5407ZM66.699 50.5407C66.699 51.8845 67.6345 52.8669 69.0622 52.8669C69.7294 52.8669 70.1739 52.7185 70.6546 52.3387L70.192 51.5601C69.8303 51.82 69.4506 51.959 69.0314 51.959C68.2625 51.9495 67.6971 51.3935 67.6971 50.5407C67.6971 49.6878 68.2625 49.1321 69.0314 49.1224C69.4495 49.1224 69.8292 49.2614 70.192 49.5213L70.6546 48.7426C70.1731 48.3629 69.7286 48.2145 69.0622 48.2145C67.6345 48.2145 66.699 49.1966 66.699 50.5407ZM79.1169 48.2145C78.5612 48.2145 78.1992 48.4744 77.949 48.8636V48.3265H76.9944V52.756H77.9588V50.2729C77.9588 49.5399 78.2737 49.1326 78.9034 49.1326C79.1096 49.1297 79.3143 49.1675 79.5058 49.2441L79.8027 48.3362C79.5895 48.2522 79.3115 48.2153 79.1163 48.2153L79.1169 48.2145ZM53.2971 48.6787C52.8337 48.3732 52.1951 48.2153 51.4907 48.2153C50.3685 48.2153 49.646 48.7532 49.646 49.6333C49.646 50.3555 50.1839 50.8011 51.1744 50.9401L51.6294 51.0049C52.1576 51.0791 52.407 51.2181 52.407 51.4683C52.407 51.8108 52.0561 52.0062 51.3973 52.0062C50.7301 52.0062 50.2487 51.793 49.924 51.5428L49.4714 52.2939C49.9995 52.6831 50.6667 52.8688 51.3892 52.8688C52.6685 52.8688 53.4099 52.2664 53.4099 51.423C53.4099 50.6443 52.8264 50.237 51.8624 50.098L51.4084 50.0322C50.9914 49.9782 50.6573 49.8943 50.6573 49.5974C50.6573 49.2735 50.9722 49.0787 51.5007 49.0787C52.0661 49.0787 52.6135 49.2919 52.8817 49.4584L53.2987 48.6798L53.2971 48.6787ZM65.726 48.2161C65.1703 48.2161 64.8084 48.476 64.5593 48.8652V48.3265H63.6047V52.756H64.5679V50.2729C64.5679 49.5399 64.8829 49.1326 65.5126 49.1326C65.7187 49.1297 65.9235 49.1675 66.115 49.2441L66.4118 48.3362C66.1986 48.2522 65.9206 48.2153 65.7255 48.2153L65.726 48.2161ZM57.5061 48.3265H55.931V46.9827H54.9572V48.3265H54.0588V49.2069H54.9572V51.2276C54.9572 52.2553 55.3561 52.8674 56.4956 52.8674C56.9137 52.8674 57.3952 52.7379 57.7007 52.5249L57.4225 51.7001C57.135 51.8667 56.82 51.9506 56.5696 51.9506C56.0881 51.9506 55.931 51.6537 55.931 51.2092V49.2077H57.5061V48.3265ZM43.1048 52.7571V49.9771C43.1048 48.9302 42.4376 48.2258 41.3621 48.2163C40.7967 48.2069 40.2134 48.3829 39.8051 49.0044C39.4995 48.5132 39.0181 48.2163 38.3412 48.2163C37.868 48.2163 37.4057 48.3553 37.0438 48.8741V48.3265H36.0797V52.756H37.0513V50.2999C37.0513 49.531 37.4778 49.1224 38.1363 49.1224C38.776 49.1224 39.0996 49.5394 39.0996 50.2902V52.7554H40.0733V50.2994C40.0733 49.5305 40.5179 49.1218 41.1572 49.1218C41.815 49.1218 42.1289 49.5388 42.1289 50.2897V52.7549L43.1048 52.7571Z" fill="#231F20"/>
<path d="M86.7506 38.0223V37.3745H86.5819L86.3868 37.819L86.1927 37.3745H86.0235V38.0223H86.1433V37.5343L86.3258 37.9553H86.4499L86.6324 37.5332V38.0223H86.7511H86.7506ZM85.6805 38.0223V37.4854H85.8964V37.3761H85.3447V37.4854H85.5606V38.0223H85.6794H85.6805Z" fill="#F79410"/>
<path d="M67.5784 40.8007H52.9808V14.5669H67.5786L67.5784 40.8007Z" fill="#FF5F00"/>
<path d="M53.906 27.6841C53.906 22.3626 56.3976 17.6222 60.2776 14.5672C57.3407 12.2514 53.7081 10.9945 49.9679 11C40.7545 11 33.286 18.4696 33.286 27.6841C33.286 36.8986 40.7545 44.3682 49.9679 44.3682C53.7082 44.3738 57.3409 43.1169 60.2779 40.801C56.3982 37.7466 53.906 33.0059 53.906 27.6841Z" fill="#EB001B"/>
<path d="M87.2711 27.6841C87.2711 36.8986 79.8026 44.3682 70.5892 44.3682C66.8485 44.3737 63.2154 43.1168 60.2778 40.801C64.1589 37.7461 66.6506 33.0059 66.6506 27.6841C66.6506 22.3623 64.1589 17.6222 60.2778 14.5672C63.2154 12.2514 66.8483 10.9946 70.5889 11C79.8023 11 87.2708 18.4696 87.2708 27.6841" fill="#F79E1B"/>
<rect x="0.500488" y="0.5" width="119" height="63" rx="3.5" stroke="#D7DADD"/>
</svg>
