<svg width="16" height="16" viewBox="0 0 16 16" fill="none" xmlns="http://www.w3.org/2000/svg">
<path fill-rule="evenodd" clip-rule="evenodd" d="M8.00011 13.272C4.93407 11.5257 3.22403 9.79004 2.39712 8.2841C1.55078 6.74277 1.62462 5.44459 2.09426 4.52322C3.05957 2.6294 5.80464 2.02382 7.47715 4.13914L8.00007 4.8005L8.52303 4.13917C10.1958 2.02376 12.941 2.62945 13.9063 4.52322C14.376 5.44457 14.4498 6.74275 13.6034 8.28408C12.7764 9.79003 11.0663 11.5257 8.00011 13.272ZM8.00013 2.73775C5.64733 0.502007 2.1764 1.42603 0.906342 3.91772C0.209314 5.28519 0.199793 7.05261 1.22839 8.92585C2.24785 10.7825 4.28046 12.7422 7.67761 14.6199L8.0001 14.7981L8.32259 14.6199C11.7199 12.7422 13.7526 10.7825 14.7721 8.92586C15.8008 7.05263 15.7913 5.28521 15.0943 3.91772C13.8242 1.42599 10.3531 0.502041 8.00013 2.73775Z" fill="#17696A"/>
</svg>
