<svg width="120" height="64" viewBox="0 0 120 64" fill="none" xmlns="http://www.w3.org/2000/svg">
<rect x="0.500488" y="0.5" width="119" height="63" rx="3.5" fill="#F4F5F7"/>
<path d="M35.2748 23.3814C34.3587 22.3372 32.7027 21.8895 30.5842 21.8895H24.4358C24.2261 21.8894 24.0232 21.9642 23.8637 22.1003C23.7042 22.2364 23.5985 22.425 23.5656 22.6322L21.0067 38.8698C20.9948 38.9452 20.9994 39.0222 21.0202 39.0956C21.0409 39.1689 21.0773 39.2369 21.1269 39.2949C21.1765 39.3528 21.238 39.3993 21.3073 39.4312C21.3766 39.4631 21.452 39.4796 21.5282 39.4795H25.324L26.2773 33.4328L26.2478 33.6222C26.28 33.4155 26.385 33.2271 26.5438 33.0909C26.7026 32.9548 26.9049 32.8798 27.1141 32.8796H28.9178C32.4613 32.8796 35.2359 31.4403 36.0464 27.2767C36.0705 27.1536 36.0913 27.0338 36.1093 26.9166C36.3501 25.3778 36.1077 24.3303 35.2753 23.3819" fill="#003087"/>
<path d="M81.7438 31.1075C81.5118 32.6311 80.3483 32.6311 79.2232 32.6311H78.5829L79.0322 29.7864C79.0595 29.6146 79.2073 29.4882 79.3813 29.4882H79.6752C80.4414 29.4882 81.1648 29.4882 81.5381 29.9244C81.7608 30.1854 81.8281 30.5729 81.7438 31.1075ZM81.254 27.1322H77.0095C76.8689 27.1323 76.733 27.1825 76.6261 27.2738C76.5192 27.365 76.4483 27.4914 76.4261 27.6303L74.711 38.5136C74.7031 38.564 74.7063 38.6156 74.7202 38.6647C74.7341 38.7139 74.7585 38.7594 74.7916 38.7982C74.8248 38.8371 74.866 38.8683 74.9123 38.8897C74.9587 38.9111 75.0091 38.9223 75.0602 38.9224H77.2383C77.4413 38.9224 77.6142 38.7746 77.646 38.5743L78.133 35.4878C78.1779 35.2016 78.4253 34.9898 78.7153 34.9898H80.0583C82.8548 34.9898 84.4681 33.6375 84.8895 30.9554C85.0794 29.7832 84.8971 28.8616 84.3482 28.2164C83.7446 27.5071 82.6747 27.1317 81.2546 27.1317" fill="#009CDE"/>
<path d="M51.4704 31.1076C51.2383 32.6312 50.0749 32.6312 48.9492 32.6312H48.3089L48.7582 29.7865C48.7855 29.6147 48.9333 29.4883 49.1073 29.4883H49.4012C50.1674 29.4883 50.8908 29.4883 51.2641 29.9245C51.4873 30.1855 51.5547 30.573 51.4704 31.1076ZM50.9806 27.1323H46.7361C46.446 27.1323 46.1986 27.3436 46.1532 27.6304L44.4376 38.5137C44.4296 38.5641 44.4326 38.6157 44.4465 38.6649C44.4604 38.7141 44.4847 38.7597 44.5179 38.7985C44.5511 38.8374 44.5923 38.8686 44.6387 38.89C44.6851 38.9114 44.7356 38.9225 44.7867 38.9225H46.8138C47.1038 38.9225 47.3506 38.7112 47.3961 38.4245L47.8596 35.4884C47.9045 35.2017 48.1518 34.9904 48.4419 34.9904H49.7848C52.5813 34.9904 54.1946 33.6376 54.616 30.9555C54.8059 29.7833 54.6237 28.8617 54.0748 28.2165C53.4712 27.5072 52.4013 27.1318 50.9811 27.1318L50.9806 27.1323ZM60.8351 35.015C60.638 36.1763 59.717 36.9562 58.5409 36.9562C57.9516 36.9562 57.4793 36.7663 57.1761 36.4073C56.8751 36.0516 56.7624 35.5442 56.8576 34.98C57.0404 33.8286 57.9773 33.0241 59.1353 33.0241C59.7126 33.0241 60.1805 33.2157 60.4903 33.5779C60.8017 33.943 60.9243 34.453 60.8351 35.015ZM63.6677 31.0584H61.6351C61.5506 31.0583 61.4689 31.0884 61.4047 31.1433C61.3404 31.1982 61.298 31.2742 61.2849 31.3577L61.1962 31.9258L61.054 31.72C60.614 31.0814 59.6327 30.8674 58.6531 30.8674C56.4077 30.8674 54.4896 32.5694 54.1164 34.9554C53.9221 36.1468 54.1979 37.2845 54.8732 38.0786C55.4933 38.8081 56.3782 39.1118 57.4328 39.1118C59.2431 39.1118 60.2467 37.9494 60.2467 37.9494L60.1559 38.5142C60.1479 38.5647 60.151 38.6164 60.1649 38.6656C60.1788 38.7148 60.2032 38.7604 60.2364 38.7993C60.2697 38.8382 60.311 38.8693 60.3574 38.8907C60.4039 38.9121 60.4545 38.9231 60.5056 38.923H62.3356C62.6257 38.923 62.873 38.7123 62.9185 38.425L64.0174 31.4677C64.0253 31.4172 64.0221 31.3655 64.0082 31.3163C63.9942 31.2671 63.9697 31.2215 63.9364 31.1826C63.9031 31.1438 63.8618 31.1126 63.8153 31.0912C63.7688 31.0699 63.7183 31.0589 63.6671 31.0589" fill="#003087"/>
<path d="M91.1078 35.0155C90.9108 36.1768 89.9898 36.9567 88.8137 36.9567C88.2243 36.9567 87.7521 36.7668 87.4489 36.4078C87.1479 36.052 87.0352 35.5447 87.1304 34.9805C87.3132 33.8291 88.2495 33.0246 89.4081 33.0246C89.9854 33.0246 90.4533 33.2162 90.7631 33.5784C91.0745 33.9435 91.197 34.4535 91.1078 35.0155ZM93.9404 31.0589H91.9079C91.8234 31.0588 91.7417 31.0889 91.6775 31.1438C91.6132 31.1987 91.5707 31.2747 91.5577 31.3582L91.469 31.9263L91.3267 31.7205C90.8867 31.0818 89.9055 30.8679 88.9259 30.8679C86.6811 30.8679 84.7629 32.5698 84.3892 34.9559C84.1949 36.1473 84.4713 37.285 85.1466 38.0791C85.7666 38.8086 86.6515 39.1123 87.7061 39.1123C89.517 39.1123 90.5206 37.9499 90.5206 37.9499L90.4298 38.5147C90.4216 38.5652 90.4245 38.6168 90.4383 38.666C90.452 38.7152 90.4764 38.7609 90.5095 38.7997C90.5427 38.8386 90.5839 38.8699 90.6303 38.8912C90.6768 38.9126 90.7273 38.9236 90.7784 38.9235H92.6079C92.8979 38.9235 93.1453 38.7128 93.1912 38.4255L94.2901 31.4682C94.298 31.4177 94.2949 31.366 94.2809 31.3168C94.267 31.2676 94.2425 31.222 94.2092 31.1831C94.1759 31.1443 94.1346 31.1131 94.0881 31.0917C94.0416 31.0704 93.9911 31.0594 93.9399 31.0594" fill="#009CDE"/>
<path d="M74.4943 31.0592H72.4509C72.2555 31.0592 72.0733 31.1561 71.9638 31.3181L69.1455 35.4685L67.9508 31.4801C67.9143 31.3584 67.8397 31.2517 67.7378 31.1758C67.636 31.0999 67.5125 31.0589 67.3855 31.0587H65.3776C65.3213 31.0587 65.2658 31.0722 65.2157 31.0979C65.1657 31.1237 65.1225 31.161 65.0897 31.2068C65.057 31.2526 65.0356 31.3056 65.0274 31.3613C65.0193 31.417 65.0245 31.4738 65.0427 31.5271L67.2919 38.1303L65.1762 41.1156C65.1388 41.1686 65.1167 41.2309 65.1123 41.2956C65.1078 41.3603 65.1213 41.4249 65.1511 41.4825C65.1809 41.5401 65.2259 41.5884 65.2813 41.6222C65.3367 41.6559 65.4003 41.6738 65.4651 41.6738H67.5064C67.699 41.6738 67.8802 41.5792 67.9907 41.4204L74.7844 31.6147C74.8213 31.5617 74.8429 31.4996 74.847 31.4351C74.8511 31.3707 74.8375 31.3064 74.8076 31.2491C74.7777 31.1919 74.7327 31.1439 74.6775 31.1104C74.6223 31.077 74.5589 31.0592 74.4943 31.0592Z" fill="#003087"/>
<path d="M96.3366 27.4325L94.5941 38.515C94.5862 38.5655 94.5893 38.6171 94.6033 38.6663C94.6172 38.7155 94.6416 38.7611 94.6749 38.7999C94.7081 38.8388 94.7493 38.8699 94.7958 38.8913C94.8422 38.9127 94.8927 38.9238 94.9438 38.9238H96.6956C96.9856 38.9238 97.233 38.7126 97.2784 38.4258L98.9962 27.542C99.0042 27.4915 99.0012 27.4398 98.9873 27.3906C98.9734 27.3414 98.949 27.2958 98.9157 27.2569C98.8825 27.218 98.8412 27.1868 98.7947 27.1655C98.7482 27.1441 98.6977 27.1331 98.6465 27.1332H96.6863C96.6019 27.133 96.5202 27.163 96.4561 27.2178C96.3919 27.2726 96.3495 27.3486 96.3366 27.432" fill="#009CDE"/>
<path d="M35.2748 23.3814C34.3587 22.3372 32.7027 21.8895 30.5842 21.8895H24.4358C24.2261 21.8894 24.0232 21.9642 23.8637 22.1003C23.7042 22.2364 23.5985 22.425 23.5656 22.6322L21.0067 38.8698C20.9948 38.9452 20.9994 39.0222 21.0202 39.0956C21.0409 39.1689 21.0773 39.2369 21.1269 39.2949C21.1765 39.3528 21.238 39.3993 21.3073 39.4312C21.3766 39.4631 21.452 39.4796 21.5282 39.4795H25.324L26.2773 33.4328L26.2478 33.6222C26.28 33.4155 26.385 33.2271 26.5438 33.0909C26.7026 32.9548 26.9049 32.8798 27.1141 32.8796H28.9178C32.4613 32.8796 35.2359 31.4403 36.0464 27.2767C36.0705 27.1536 36.0913 27.0338 36.1093 26.9166C36.3501 25.3778 36.1077 24.3303 35.2753 23.3819" fill="#003087"/>
<path d="M27.3019 26.937C27.3306 26.756 27.4229 26.5912 27.5623 26.4721C27.7016 26.3531 27.8787 26.2876 28.062 26.2874H32.8822C33.453 26.2874 33.9855 26.3246 34.472 26.4023C34.738 26.4451 35.0012 26.5039 35.2601 26.5785C35.5541 26.6612 35.8386 26.7745 36.1089 26.9167C36.3508 25.3773 36.1078 24.3304 35.2754 23.3814C34.3587 22.3378 32.7033 21.8902 30.5849 21.8902H24.4359C24.2263 21.8903 24.0237 21.9652 23.8645 22.1013C23.7052 22.2374 23.5996 22.4258 23.5668 22.6328L21.0068 38.8688C20.9948 38.9441 20.9993 39.0212 21.02 39.0946C21.0407 39.168 21.0771 39.236 21.1266 39.294C21.1761 39.352 21.2376 39.3986 21.3069 39.4305C21.3761 39.4625 21.4515 39.479 21.5277 39.479H25.3241L26.2774 33.4318L27.3019 26.937Z" fill="#003087"/>
<path d="M36.1091 26.9159C36.0904 27.0363 36.0694 27.1564 36.0462 27.276C35.2357 31.439 32.4611 32.8789 28.9176 32.8789H27.1133C26.9041 32.879 26.7019 32.9539 26.5432 33.0901C26.3844 33.2263 26.2795 33.4148 26.2476 33.6215L25.3238 39.4782L25.0611 41.1397C25.0507 41.2057 25.0546 41.2731 25.0728 41.3374C25.0909 41.4017 25.1228 41.4612 25.1662 41.512C25.2095 41.5628 25.2634 41.6035 25.3241 41.6315C25.3847 41.6594 25.4507 41.6739 25.5175 41.6738H28.7173C29.096 41.6738 29.4178 41.398 29.4775 41.0242L29.5087 40.8612L30.1117 37.0391L30.1501 36.8279C30.1787 36.6467 30.2711 36.4818 30.4105 36.3627C30.55 36.2436 30.7274 36.1782 30.9107 36.1783H31.3896C34.4893 36.1783 36.9163 34.9196 37.6256 31.277C37.9211 29.7557 37.7679 28.4844 36.9853 27.5918C36.7368 27.3151 36.4399 27.086 36.1091 26.9159Z" fill="#009CDE"/>
<path d="M35.2591 26.5789C35.1354 26.5422 35.0079 26.5094 34.8766 26.4804C34.7452 26.4514 34.6095 26.4256 34.4705 26.4037C33.9835 26.3244 33.4515 26.2872 32.8802 26.2872H28.0605C27.877 26.287 27.6996 26.3524 27.5601 26.4716C27.4207 26.5909 27.3286 26.7561 27.3004 26.9373L26.2759 33.4333L26.2463 33.6221C26.2783 33.4154 26.3832 33.2269 26.5419 33.0907C26.7007 32.9545 26.9029 32.8796 27.1121 32.8794H28.9164C32.4599 32.8794 35.2345 31.4402 36.045 27.2766C36.0691 27.1535 36.0893 27.0342 36.1079 26.9165C35.8939 26.8045 35.6709 26.7104 35.4414 26.6352C35.3817 26.6155 35.321 26.5969 35.2591 26.5783" fill="#012169"/>
<rect x="0.500488" y="0.5" width="119" height="63" rx="3.5" stroke="#D7DADD"/>
</svg>
