<svg width="16" height="16" viewBox="0 0 16 16" fill="none" xmlns="http://www.w3.org/2000/svg">
<g clip-path="url(#clip0_0_3016)">
<path fill-rule="evenodd" clip-rule="evenodd" d="M7.99996 0.666504C8.36815 0.666504 8.66663 0.964981 8.66663 1.33317V7.33317H14.6666C15.0348 7.33317 15.3333 7.63165 15.3333 7.99984C15.3333 8.36803 15.0348 8.6665 14.6666 8.6665H8.66663V14.6665C8.66663 15.0347 8.36815 15.3332 7.99996 15.3332C7.63177 15.3332 7.33329 15.0347 7.33329 14.6665V8.6665H1.33329C0.965103 8.6665 0.666626 8.36803 0.666626 7.99984C0.666626 7.63165 0.965103 7.33317 1.33329 7.33317H7.33329V1.33317C7.33329 0.964981 7.63177 0.666504 7.99996 0.666504Z" fill="#17696A"/>
</g>
<defs>
<clipPath id="clip0_0_3016">
<rect width="16" height="16" fill="white"/>
</clipPath>
</defs>
</svg>
