<svg width="16" height="15" viewBox="0 0 16 15" fill="none" xmlns="http://www.w3.org/2000/svg">
<path fill-rule="evenodd" clip-rule="evenodd" d="M2.59495 2.00518C2.52984 2.00028 2.43949 1.99984 2.27005 1.99984H1.16722C0.799026 1.99984 0.500549 1.70136 0.500549 1.33317C0.500549 0.964984 0.799026 0.666507 1.16722 0.666507H2.27005C2.27633 0.666507 2.28262 0.666506 2.2889 0.666505C2.43201 0.666488 2.5737 0.66647 2.69513 0.67562C2.83026 0.685801 2.98725 0.709715 3.14966 0.782161C3.37822 0.884118 3.57348 1.04835 3.71309 1.25606C3.81229 1.40366 3.86275 1.55423 3.89593 1.68561C3.92575 1.80368 3.95001 1.94328 3.97452 2.08427C3.97559 2.09046 3.97667 2.09666 3.97775 2.10285L4.1366 3.01623L12.8126 3.27305C13.1526 3.2831 13.4464 3.29179 13.6884 3.31844C13.9441 3.34661 14.1977 3.39957 14.4409 3.52916C14.8095 3.72552 15.1074 4.03233 15.2927 4.40655C15.4151 4.65352 15.4605 4.90854 15.4811 5.16503C15.5006 5.40768 15.5006 5.70161 15.5005 6.04174V6.09091C15.5006 6.41056 15.5006 6.68783 15.4827 6.91776C15.4637 7.1616 15.4218 7.40379 15.3101 7.6411C15.1401 8.00231 14.8658 8.30436 14.5227 8.50839C14.2972 8.64244 14.0602 8.70745 13.8193 8.74984C13.5922 8.7898 13.3162 8.8165 12.9981 8.84728L6.50881 9.47527C6.18268 9.50685 5.90011 9.5342 5.66436 9.53835C5.41458 9.54274 5.16415 9.52334 4.91274 9.43098C4.53569 9.29247 4.20909 9.04364 3.97546 8.71688C3.81968 8.499 3.7345 8.26271 3.67243 8.02072C3.61385 7.79233 3.56522 7.51264 3.50909 7.18984L2.66413 2.3313C2.6351 2.16437 2.61918 2.07542 2.6032 2.01212C2.60263 2.00987 2.60208 2.00773 2.60155 2.00571C2.59946 2.00553 2.59727 2.00536 2.59495 2.00518ZM4.36978 4.35705L4.81851 6.93724C4.88004 7.29107 4.92005 7.51826 4.96396 7.68946C5.00584 7.85275 5.03897 7.91187 5.06008 7.94139C5.13795 8.05031 5.24682 8.13326 5.3725 8.17943C5.40657 8.19194 5.47236 8.20819 5.64091 8.20522C5.81763 8.20211 6.04729 8.18037 6.40476 8.14578L12.8457 7.52247C13.1946 7.4887 13.4184 7.46657 13.5883 7.43668C13.7501 7.40821 13.8105 7.38065 13.8413 7.36234C13.9556 7.29433 14.0471 7.19364 14.1037 7.07324C14.119 7.04081 14.1406 6.97804 14.1534 6.81425C14.1667 6.6423 14.1672 6.41742 14.1672 6.06684C14.1672 5.69451 14.1667 5.4546 14.152 5.27171C14.138 5.09671 14.1142 5.0311 14.0979 4.99838C14.0362 4.87364 13.9369 4.77136 13.814 4.70591C13.7818 4.68874 13.7169 4.66298 13.5424 4.64376C13.36 4.62367 13.1202 4.61607 12.7481 4.60506L4.36978 4.35705Z" fill="white"/>
<path fill-rule="evenodd" clip-rule="evenodd" d="M6.16722 11.6665C5.79903 11.6665 5.50055 11.965 5.50055 12.3332C5.50055 12.7014 5.79903 12.9998 6.16722 12.9998C6.53541 12.9998 6.83388 12.7014 6.83388 12.3332C6.83388 11.965 6.53541 11.6665 6.16722 11.6665ZM4.16722 12.3332C4.16722 11.2286 5.06265 10.3332 6.16722 10.3332C7.27179 10.3332 8.16722 11.2286 8.16722 12.3332C8.16722 13.4377 7.27179 14.3332 6.16722 14.3332C5.06265 14.3332 4.16722 13.4377 4.16722 12.3332Z" fill="white"/>
<path fill-rule="evenodd" clip-rule="evenodd" d="M12.5005 11.6665C12.1324 11.6665 11.8339 11.965 11.8339 12.3332C11.8339 12.7014 12.1324 12.9998 12.5005 12.9998C12.8687 12.9998 13.1672 12.7014 13.1672 12.3332C13.1672 11.965 12.8687 11.6665 12.5005 11.6665ZM10.5005 12.3332C10.5005 11.2286 11.396 10.3332 12.5005 10.3332C13.6051 10.3332 14.5005 11.2286 14.5005 12.3332C14.5005 13.4377 13.6051 14.3332 12.5005 14.3332C11.396 14.3332 10.5005 13.4377 10.5005 12.3332Z" fill="white"/>
</svg>
