<svg width="120" height="64" viewBox="0 0 120 64" fill="none" xmlns="http://www.w3.org/2000/svg">
<rect x="0.500488" y="0.5" width="119" height="63" rx="3.5" fill="#F4F5F7"/>
<path d="M54.8271 42.6849H49.0247L52.6511 20.3982H58.4541L54.8271 42.6849ZM44.1434 20.3982L38.6117 35.7272L37.9571 32.4263L37.9577 32.4274L36.0053 22.4049C36.0053 22.4049 35.7692 20.3982 33.2528 20.3982H24.1078L24.0005 20.7756C24.0005 20.7756 26.7971 21.3574 30.0699 23.323L35.111 42.6855H41.1566L50.3881 20.3982H44.1434ZM89.782 42.6849H95.1099L90.4646 20.3976H85.8003C83.6464 20.3976 83.1218 22.0585 83.1218 22.0585L74.468 42.6849H80.5166L81.7262 39.3744H89.1024L89.782 42.6849ZM83.3972 34.8013L86.4459 26.4611L88.1611 34.8013H83.3972ZM74.9217 25.7577L75.7497 20.9717C75.7497 20.9717 73.1946 20 70.531 20C67.6516 20 60.8137 21.2585 60.8137 27.378C60.8137 33.1357 68.8391 33.2072 68.8391 36.2315C68.8391 39.2558 61.6405 38.7139 59.2648 36.8068L58.4022 41.8109C58.4022 41.8109 60.9931 43.0694 64.9516 43.0694C68.9112 43.0694 74.8847 41.0192 74.8847 35.4392C74.8847 29.6446 66.7871 29.1051 66.7871 26.5857C66.7877 24.0658 72.4387 24.3895 74.9217 25.7577Z" fill="#2566AF"/>
<path d="M37.9577 32.4267L36.0053 22.4041C36.0053 22.4041 35.7692 20.3975 33.2528 20.3975H24.1078L24.0005 20.7748C24.0005 20.7748 28.3959 21.6858 32.6119 25.0987C36.6431 28.3609 37.9577 32.4267 37.9577 32.4267Z" fill="#E6A540"/>
<rect x="0.500488" y="0.5" width="119" height="63" rx="3.5" stroke="#D7DADD"/>
</svg>
